<?xml version="1.0" standalone="no"?>
<!DOCTYPE svg PUBLIC "-//W3C//DTD SVG 1.1//EN" "http://www.w3.org/Graphics/SVG/1.1/DTD/svg11.dtd" >
<svg xmlns="http://www.w3.org/2000/svg">
<metadata>
This is a custom SVG webfont generated by Font Squirrel.
Copyright   : Copyright c 19902001 ParaType Inc All Rights Reserved ITC Officina is a registered trade mark of International Typeface Corporation
</metadata>
<defs>
<font id="OfficinaSansMediumOSC" horiz-adv-x="1069" >
<font-face units-per-em="2048" ascent="1638" descent="-410" />
<missing-glyph horiz-adv-x="477" />
<glyph unicode=" "  horiz-adv-x="477" />
<glyph unicode="&#x09;" horiz-adv-x="477" />
<glyph unicode="&#xa0;" horiz-adv-x="477" />
<glyph unicode="!" horiz-adv-x="718" d="M203 118.5q0 65.5 46 111.5t111.5 46t111.5 -46t46 -111.5t-46 -113.5t-111.5 -48t-111.5 48t-46 113.5zM229 1380q-2 23 4.5 30t28.5 7h187q25 0 30.5 -7t3.5 -30l-45 -815q-2 -23 -8 -29t-29 -6h-90q-20 0 -26 6.5t-9 28.5z" />
<glyph unicode="&#x22;" horiz-adv-x="784" d="M113 1372q-2 20 5 26.5t32 6.5h151q23 0 29 -6t4 -27l-33 -495q-2 -23 -8 -30t-29 -7h-84q-23 0 -26.5 6t-6.5 31zM453 1372q-2 20 5 26.5t29 6.5h154q23 0 29 -6t4 -27l-33 -495q-2 -23 -8 -30t-29 -7h-84q-23 0 -28 6t-7 31z" />
<glyph unicode="#" horiz-adv-x="1077" d="M90 270v90q0 23 7 30t30 7h119l39 377h-103q-23 0 -30 6t-7 29v96q0 23 7.5 29t29.5 6h121l39 375q2 20 8 26.5t27 6.5h86q23 0 29 -7.5t4 -29.5l-39 -371h233l41 375q2 20 8 26.5t27 6.5h84q39 0 35 -37l-39 -371h106q23 0 29 -6t6 -29v-96q0 -23 -6 -29t-29 -6h-125 l-39 -377h109q23 0 29 -7t6 -30v-90q0 -23 -6 -28.5t-29 -5.5h-125l-39 -367q-2 -33 -37 -33h-86q-25 0 -31 7t-1 30l38 363h-233l-39 -367q-2 -33 -37 -33h-84q-23 0 -29 7t-4 30l37 363h-100q-23 0 -30 5.5t-7 28.5zM401 397h234l37 377h-234z" />
<glyph unicode="$" horiz-adv-x="1087" d="M146.5 75q-3.5 9 5.5 29l43 121q10 31 49 11q137 -72 256 -82v456q-170 90 -217 129q-123 100 -123 262q0 147 92 242.5t248 116.5v113q0 23 6 28.5t29 5.5h47q23 0 28.5 -6t5.5 -28v-107q158 -10 275 -74q25 -12 28 -24.5t-8 -32.5l-43 -105q-4 -12 -9 -17t-15 -2 t-14.5 5t-18.5 10q-90 51 -195 64v-424q82 -39 132.5 -69.5t103.5 -79t78.5 -112t25.5 -143.5q0 -152 -93 -257t-247 -128v-112q0 -23 -6 -29t-28 -6h-47q-23 0 -29 6t-6 29v106q-174 10 -326 82q-24 13 -27.5 22zM360 1016q0 -68 33 -115t113 -94v381q-146 -29 -146 -172z M610 154q70 16 108 67t38 127q0 72 -33 123t-113 100v-417z" />
<glyph unicode="%" horiz-adv-x="1646" d="M88 981q0 170 80 268.5t217 98.5q133 0 210 -92.5t77 -251.5q0 -172 -78 -270.5t-219 -98.5q-137 0 -212 90t-75 256zM252 989q0 -223 123 -223q133 0 133 225.5t-125 225.5q-61 0 -96 -61t-35 -167zM449.5 -50q-5.5 11 5.5 34l567 1359q10 27 39 27h96q29 0 34 -9 t-5 -30l-570 -1362q-12 -31 -41 -30h-92q-28 0 -33.5 11zM975 319q0 170 81 268.5t218 98.5q133 0 210 -91t77 -253q0 -170 -79 -268.5t-218 -98.5q-137 0 -213 90t-76 254zM1141 330q0 -223 123 -224q133 0 133 228q0 223 -125 223q-63 0 -97 -59t-34 -168z" />
<glyph unicode="&#x26;" horiz-adv-x="1267" d="M109 344q0 135 73.5 224t210.5 175q-104 123 -143 200t-39 155q0 145 109.5 242.5t273.5 97.5q152 0 245 -87t93 -229q0 -125 -70.5 -213t-199.5 -180l278 -321q14 25 24.5 56.5t15.5 54t13 68.5t13 64q0 4 1 12.5t2 11.5t3 8t8 4t16 -1l127 -20q23 -2 23 -33 q0 -80 -35 -184.5t-86 -182.5l137 -166q27 -29 2 -49l-94 -76q-14 -12 -24.5 -12t-24.5 17l-119 133q-92 -82 -181 -115t-208 -33q-203 0 -323.5 102.5t-120.5 276.5zM330 365q0 -100 67.5 -164t171.5 -64q139 0 252 113l-321 379q-94 -70 -132 -129t-38 -135zM410 1110 q0 -18 2 -34.5t9 -35.5l12 -30q5 -12 17.5 -32t17.5 -29t21 -28l22 -26l24 -28q18 -22 22 -25q96 76 136 135t40 131q0 76 -42 120t-113.5 44t-119.5 -46t-48 -116z" />
<glyph unicode="'" horiz-adv-x="444" d="M113 1372q-2 20 5 26.5t32 6.5h151q23 0 29 -6t4 -27l-33 -495q-2 -23 -8 -30t-29 -7h-84q-23 0 -26.5 6t-6.5 31z" />
<glyph unicode="(" horiz-adv-x="849" d="M213 506q0 510 387 989q25 31 47 18l88 -49q29 -16 6 -49q-170 -254 -239.5 -439t-69.5 -470q0 -477 299 -893q31 -41 10 -53l-94 -62q-20 -14 -49 19q-385 465 -385 989z" />
<glyph unicode=")" horiz-adv-x="864" d="M123 1415q-25 35 6 49l92 49q20 10 43 -18q391 -483 391 -989q0 -518 -389 -989q-29 -33 -47 -19l-94 62q-20 12 10 53q301 420 301 893q0 283 -70.5 467t-242.5 442z" />
<glyph unicode="*" horiz-adv-x="1087" d="M193 1112l32 96q8 25 21.5 27t32.5 -10l215 -103l-31 246q-4 23 1 30t30 7h112q27 0 31 -12.5t-2 -34.5l-29 -238l215 105q18 12 32.5 10t23.5 -29l28 -96q10 -23 8 -35t-28 -16l-246 -43l172 -180q16 -14 15 -24.5t-19 -25.5l-80 -59q-20 -16 -31.5 -16t-27.5 22 l-119 217l-117 -217q-8 -16 -17 -20t-16.5 0t-25.5 16l-80 57q-31 20 -4 50l170 180l-242 45q-40 6 -24 51z" />
<glyph unicode="+" horiz-adv-x="1077" d="M72 465v113q0 23 6 28.5t28 5.5h338v342q0 23 6.5 28t28.5 5h117q23 0 29 -5t6 -28v-342h340q23 0 29 -6t6 -28v-113q0 -23 -6.5 -29t-28.5 -6h-340v-340q0 -23 -6.5 -29t-28.5 -6h-117q-20 0 -27.5 7.5t-7.5 27.5v340h-338q-23 0 -28.5 6t-5.5 29z" />
<glyph unicode="," horiz-adv-x="583" d="M83 -216q1 3 5 17l121 416q8 27 41 27h180q31 0 34 -12.5t-11 -32.5l-238 -443q-12 -20 -19.5 -23t-25.5 5l-66 22l-15 7q-5 2 -6 8t0 9z" />
<glyph unicode="-" horiz-adv-x="755" d="M86 459v131q0 20 7 26.5t30 6.5h514q23 0 28 -5.5t5 -27.5v-131q0 -23 -5.5 -28t-27.5 -5h-514q-25 0 -31 5t-6 28z" />
<glyph unicode="." horiz-adv-x="622" d="M143 139.5q0 69.5 49.5 118.5t119 49t118.5 -49t49 -118.5t-49 -119t-118.5 -49.5t-119 49.5t-49.5 119z" />
<glyph unicode="/" horiz-adv-x="1050" d="M57 -165q-4 9 6 30l678 1687q12 27 43 27h127q25 0 29 -9t-4 -30l-678 -1685q-10 -29 -45 -29h-127q-25 0 -29 9z" />
<glyph unicode="0" horiz-adv-x="1071" d="M82 586q0 301 125 473t344 172q223 0 330.5 -174t107.5 -455q0 -297 -110.5 -472t-348.5 -175q-211 0 -329.5 167t-118.5 464zM297 590q0 -223 61.5 -340t176.5 -117q244 0 243 453q0 463 -235 463q-117 0 -181.5 -120t-64.5 -339z" />
<glyph unicode="1" horiz-adv-x="960" d="M98 918q0 10 21 24l375 262h124q23 0 28 -5t5 -28v-1007h162q23 0 29 -5t6 -28v-98q0 -23 -6 -28t-29 -5h-571q-23 0 -29 5t-6 28v98q0 23 6 28t29 5h200v784l-247 -135q-20 -10 -25 -10q-6 0 -23 22l-38 68q-11 21 -11 25z" />
<glyph unicode="2" horiz-adv-x="987" d="M94 893q0 29 39 113q109 221 369 221q170 0 271 -93.5t101 -248.5q0 -219 -225 -357l-123 -75q-109 -68 -153.5 -123.5t-53.5 -141.5h517q23 0 27.5 -6t4.5 -30v-119q0 -23 -5 -28t-27 -5h-715q-25 0 -25 43v16q0 195 88 322t283 244q121 74 154 116q45 55 45 129 q0 82 -48.5 130.5t-134.5 48.5q-61 0 -100 -28t-78 -97q-2 -2 -15.5 -32t-24.5 -49.5t-19 -19.5t-13 2l-120 41q-19 7 -19 27z" />
<glyph unicode="3" horiz-adv-x="1015" d="M88 -74q0 6 2 13l43 127q2 12 17 12q6 0 30 -10q135 -66 256 -66q119 0 183.5 62.5t64.5 177.5q0 225 -274 225h-68q-23 0 -30 7t-7 30v108q0 23 7 30t30 7h72q109 0 174 56.5t65 162.5q0 84 -50 135.5t-132 51.5q-61 0 -107.5 -28t-97.5 -87q-16 -16 -26 -16q-8 0 -13 4 l-98 86q-8 6 -8 16q0 14 14 29q135 170 346 170q168 0 271.5 -96.5t103.5 -251.5q0 -213 -203 -303q250 -80 250 -349q0 -180 -126 -291.5t-328 -111.5q-92 0 -226.5 31.5t-134.5 68.5z" />
<glyph unicode="4" horiz-adv-x="1060" d="M63 154v165l517 877q10 20 22 21q4 0 21 -5l127 -47q29 -12 28 -22q0 -8 -10 -25l-512 -829h356l27 327q2 23 7 29t28 6h106q20 0 27.5 -7t7.5 -30v-327h141q23 0 28 -6.5t5 -32.5v-94q0 -23 -5 -29t-28 -6h-141v-277q0 -23 -6 -30t-29 -7h-135q-23 0 -29 6.5t-6 28.5 v279h-514q-23 0 -28 6t-5 29z" />
<glyph unicode="5" horiz-adv-x="1030" d="M104 -115q0 10 2 17l25 125q6 18 25 18q2 0 26 -6q129 -41 232 -41q143 0 223 81t80 224q0 117 -56.5 180.5t-156.5 63.5q-123 0 -223 -109q-10 -10 -23 -10q-8 0 -14 2l-109 35q-18 4 -18 24l63 680q2 20 7.5 25.5t27.5 5.5h569q23 0 28 -5t5 -32v-110q0 -23 -5 -30 t-28 -7h-428l-39 -365q104 72 228 72q168 0 270.5 -113.5t102.5 -302.5q0 -227 -136.5 -361t-365.5 -134q-84 0 -198 21t-114 52z" />
<glyph unicode="6" horiz-adv-x="1056" d="M113 543q0 373 158.5 595t424.5 222q76 0 135.5 -14.5t59.5 -34.5q0 -6 -2 -11l-37 -124q-6 -14 -16 -15q-6 0 -19 4q-59 23 -123 23q-139 0 -232 -101.5t-128 -291.5q102 121 250 120q174 0 267 -131t93 -333q0 -221 -115.5 -356.5t-302.5 -135.5q-201 0 -307 150.5 t-106 433.5zM334 455q0 -154 51 -237t147.5 -83t150.5 84t54 234q0 137 -51 210.5t-147 73.5q-98 0 -151.5 -73.5t-53.5 -208.5z" />
<glyph unicode="7" horiz-adv-x="929" d="M72 1047v124q0 23 6 28t28 5h719q23 0 28 -5t5 -28v-65l-467 -1245q-8 -23 -24 -23q-12 0 -21 2l-131 21q-27 2 -27 16q0 6 9 27l428 1108h-519q-23 0 -28.5 6t-5.5 29z" />
<glyph unicode="8" horiz-adv-x="1073" d="M82 336q0 133 83 224t214 136q-240 92 -240 324q0 152 111.5 249t288 97t289 -94t112.5 -242q0 -215 -235 -332q287 -115 286 -356q0 -180 -132 -283.5t-324 -103.5q-207 0 -330 103.5t-123 277.5zM295 342q0 -94 67.5 -151.5t176.5 -57.5q104 0 168.5 58.5t64.5 150.5 q0 104 -63.5 162.5t-180.5 103.5q-233 -96 -233 -266zM344 1012q0 -86 52.5 -136.5t148.5 -97.5q184 80 184 230q-10 182 -192 182q-86 0 -139.5 -49t-53.5 -129z" />
<glyph unicode="9" horiz-adv-x="1052" d="M113 741q0 219 115.5 353.5t303.5 134.5q201 0 304.5 -148.5t103.5 -437.5q0 -377 -151.5 -598t-407.5 -221q-68 0 -132.5 11t-64.5 36l19 131q2 18 18 18q6 0 19 -4q68 -16 135 -16q279 0 352 399q-104 -131 -256 -131q-166 0 -262 128t-96 345zM319 743 q0 -143 52.5 -221t146.5 -78q201 0 201 306q0 143 -49 220t-144 77q-96 0 -151.5 -81.5t-55.5 -222.5z" />
<glyph unicode=":" horiz-adv-x="622" d="M143 139.5q0 69.5 49.5 118.5t119 49t118.5 -49t49 -118.5t-49 -119t-118.5 -49.5t-119 49.5t-49.5 119zM143 831q0 72 49.5 121t119 49t118.5 -49t49 -121q0 -70 -49 -118.5t-118.5 -48.5t-119 48.5t-49.5 118.5z" />
<glyph unicode=";" horiz-adv-x="630" d="M117 -199l125 416q8 27 39 27h182q27 0 31 -9.5t-9 -31.5l-239 -447q-10 -20 -17.5 -23t-25.5 5l-64 22q-32 10 -22 41zM174 831.5q0 69.5 49 119.5t119 50t120 -50t50 -119.5t-49 -118.5t-121 -49q-70 0 -119 49t-49 118.5z" />
<glyph unicode="&#x3c;" d="M78 641v117q0 20 6 27.5t29 17.5l845 409q20 10 26.5 6t6.5 -24v-137q0 -23 -5 -29t-28 -16l-663 -314l663 -313q23 -10 28 -16.5t5 -28.5v-135q0 -20 -6 -24.5t-27 5.5l-845 410q-31 14 -33 29q-2 6 -2 16z" />
<glyph unicode="=" d="M78 500v104q0 23 6 29t29 6h845q23 0 28 -6t5 -29v-104q0 -25 -5 -31t-28 -6h-845q-23 0 -29 7t-6 30zM78 834v108q0 23 6 29t29 6h845q23 0 28 -6t5 -29v-108q0 -23 -5 -28t-28 -5h-845q-23 0 -29 5t-6 28z" />
<glyph unicode="&#x3e;" d="M78 205v137q0 23 5 29t28 16l663 311l-663 314q-20 10 -26.5 17t-6.5 30v135q0 20 6 24.5t27 -6.5l845 -409q23 -10 29 -17.5t6 -27.5v-117q0 -14 -4 -22.5t-9 -11.5t-22 -11l-845 -410q-20 -10 -26.5 -5.5t-6.5 24.5z" />
<glyph unicode="?" horiz-adv-x="974" d="M121 1347.5q4 10.5 29 20.5q150 70 313 70q176 0 278.5 -95.5t102.5 -257.5q0 -152 -84 -233.5t-240 -126.5v-162q0 -23 -7 -30t-30 -7h-112q-23 0 -30 7.5t-7 29.5v254q0 20 8 28.5t33 14.5q141 37 200.5 88t59.5 137q0 80 -52.5 123t-148.5 43q-92 0 -235 -59 q-27 -14 -37 12l-39 111q-6 22 -2 32.5zM274 118.5q0 65.5 47.5 111.5t113 46t111.5 -46t46 -111.5t-46 -113.5t-111.5 -48t-113 48t-47.5 113.5z" />
<glyph unicode="@" horiz-adv-x="2007" d="M172 379q0 410 284.5 693.5t694.5 283.5q311 0 506.5 -160t195.5 -457q0 -260 -157.5 -449.5t-376.5 -189.5q-168 0 -184 166q-121 -166 -263 -166q-84 0 -132 64.5t-48 179.5q0 113 37 230.5t125 212t205 94.5q100 0 166 -74q4 6 9 21.5t12 23.5t20 8h106q18 0 19 -18 q0 -6 -5 -19l-96 -448q-4 -16 -4 -37v-21q0 -80 82 -79q131 0 227.5 146t96.5 345q0 225 -146.5 353t-402.5 128q-346 0 -572.5 -239.5t-226.5 -591.5q0 -293 168 -444.5t463 -151.5q180 0 319.5 38t292.5 107q10 6 23 6q10 0 12 -8l35 -94q2 -4 2 -8q0 -18 -31 -37 q-119 -66 -302 -106.5t-361 -40.5q-371 0 -582 191.5t-211 547.5zM868 344q0 -98 66 -98q72 0 129 68.5t80 177.5l43 196q-66 59 -123 60q-49 0 -90 -48.5t-61.5 -117t-32 -131t-11.5 -107.5z" />
<glyph unicode="A" horiz-adv-x="1150" d="M49 20q0 16 6 31l408 1325q6 20 11 24.5t26 4.5h168q20 0 25 -4t12 -25l407 -1325q6 -14 6 -28q0 -23 -35 -23h-176q-18 0 -26.5 5t-12.5 24l-100 366h-381l-100 -366q-4 -18 -12.5 -23.5t-26.5 -5.5h-164q-35 0 -35 20zM420 563h301l-103 412q-20 82 -47 225 q-20 -127 -45 -225z" />
<glyph unicode="B" horiz-adv-x="1173" d="M195 35v1335q0 23 5 29t27 6h336q442 0 443 -348q0 -225 -203 -322q254 -70 254 -342q0 -141 -75 -244.5t-196 -130.5q-78 -18 -235 -18h-324q-23 0 -27.5 6t-4.5 29zM410 180h149q139 0 202.5 53.5t63.5 170t-65.5 172t-204.5 55.5h-145v-451zM410 803h133 q233 0 233 229q0 109 -51 156t-166 47h-149v-432z" />
<glyph unicode="C" horiz-adv-x="964" d="M102 719q0 102 12.5 196.5t46.5 192.5t86 169t139 116t200 45q178 0 321 -123q18 -17 19 -35q0 -12 -8 -25l-66 -104q-14 -25 -43 0q-125 98 -215 98q-129 0 -190.5 -120.5t-61.5 -378.5q0 -594 276 -594q94 0 197 84q33 29 49 2l62 -99q11 -15 11 -27q0 -15 -24 -32 q-143 -115 -315 -115q-242 0 -369 191.5t-127 558.5z" />
<glyph unicode="D" horiz-adv-x="1191" d="M195 35v1335q0 23 5 29t27 6h287q305 0 440.5 -172t135.5 -510q0 -156 -24 -276.5t-81 -226t-165.5 -163t-264.5 -57.5h-328q-23 0 -27.5 6t-4.5 29zM420 186h115q86 0 146 31t93 75t51.5 118.5t22.5 137t4 157t-6 164t-26.5 140t-55.5 113.5t-95.5 71t-144.5 28h-104 v-1035z" />
<glyph unicode="E" horiz-adv-x="983" d="M195 35v1335q0 23 5 29t27 6h660q27 0 32 -10q2 -4 1 -10q0 -9 -5 -21l-34 -115q-8 -29 -39 -28h-422v-400h371q23 0 28.5 -6t5.5 -29v-110q0 -20 -6 -26.5t-28 -6.5h-371v-457h457q23 0 28.5 -7t5.5 -29v-115q0 -23 -6 -29t-28 -6h-650q-23 0 -27.5 6t-4.5 29z" />
<glyph unicode="F" horiz-adv-x="907" d="M195 35v1335q0 23 5 29t27 6h660q25 0 31 -4q3 -2 3 -9t-3 -18l-37 -125q-8 -29 -39 -28h-422v-406h371q23 0 28.5 -6t5.5 -29v-110q0 -23 -6 -29t-28 -6h-371v-600q0 -23 -7 -29t-30 -6h-156q-23 0 -27.5 6t-4.5 29z" />
<glyph unicode="G" horiz-adv-x="1134" d="M102 692q0 367 133.5 556.5t391.5 189.5q199 0 342 -105q25 -16 8 -49l-53 -104q-12 -23 -41 -9q-86 51 -137.5 68.5t-114.5 17.5q-152 0 -223.5 -131t-71.5 -407q0 -72 3 -124t11 -125t28.5 -123t53.5 -98t86 -72.5t123 -24.5q78 0 158 36v355h-158q-23 0 -29 6t-6 29 v110q0 23 6 30t29 7h332q23 0 30 -7t7 -30v-586q0 -25 -33 -45q-143 -88 -354 -88q-521 0 -521 723z" />
<glyph unicode="H" horiz-adv-x="1286" d="M195 35v1335q0 23 5 29t27 6h156q23 0 30 -6t7 -29v-553h450v553q0 23 6.5 29t28.5 6h154q23 0 30 -6t7 -29v-1335q0 -23 -7.5 -29t-29.5 -6h-154q-23 0 -29 6t-6 29v608h-450v-608q0 -23 -7 -29t-30 -6h-156q-23 0 -27.5 6t-4.5 29z" />
<glyph unicode="I" horiz-adv-x="718" d="M66 35v98q0 23 6 29t28 6h146v1069h-146q-23 0 -28.5 6t-5.5 29v98q0 23 6 29t28 6h516q23 0 30 -6t7 -29v-98q0 -23 -7 -29t-30 -6h-145v-1069h145q23 0 30 -6t7 -29v-98q0 -23 -7 -29t-30 -6h-516q-23 0 -28.5 6t-5.5 29z" />
<glyph unicode="J" horiz-adv-x="911" d="M12 362v13v17q0 5 2 10.5t7.5 6.5t13.5 1h158q20 0 20 -33q0 -141 57 -191q41 -35 107 -34q27 0 48 5t37 18l26 24q11 10 17.5 34.5t10.5 37t6 44t2 41.5v45v41v793h-317q-25 0 -31 5t-6 28v102q0 23 7 29t30 6h508q23 0 29 -6t6 -29v-899q0 -193 -21 -266 q-25 -80 -78 -135q-96 -100 -276 -101q-353 0 -363 393z" />
<glyph unicode="K" horiz-adv-x="1134" d="M195 35v1335q0 23 5 29t27 6h156q23 0 30 -6t7 -29v-622l483 657q12 16 26 16q7 0 13 -4l131 -82q18 -10 -2 -35q-2 -4 -4 -6l-444 -585l487 -603q14 -18 14 -23t-16 -17l-145 -84q-15 -9 -24 -10q-11 1 -24 20l-495 649v-606q0 -23 -7 -29t-30 -6h-156q-23 0 -27.5 6 t-4.5 29z" />
<glyph unicode="L" horiz-adv-x="964" d="M195 35v1335q0 23 5 29t27 6h156q23 0 30 -6t7 -29v-1169h500q27 0 32 -12q3 -5 3 -12q0 -10 -5 -23l-35 -125q-8 -29 -36 -29h-652q-23 0 -27.5 6t-4.5 29z" />
<glyph unicode="M" horiz-adv-x="1421" d="M158 35l67 1337q2 23 8.5 28t26.5 5h164q20 0 25.5 -4t11.5 -23l203 -612q14 -43 41 -180q33 131 49 180l209 612q6 20 11 23.5t25 3.5h162q20 0 26.5 -5t8.5 -28l70 -1333q1 -7 0 -13q0 -14 -3 -19q-5 -7 -28 -7h-152q-23 0 -29.5 6t-6.5 29l-21 831q-1 16 0 41 q0 76 4 236q-27 -137 -63 -250l-185 -545q-6 -18 -12 -23.5t-25 -5.5h-92q-20 0 -26 4.5t-13 24.5l-172 545q-25 88 -57 250q3 -128 3 -209q0 -40 -1 -68l-22 -831q0 -23 -7.5 -29t-29.5 -6h-138q-23 0 -28.5 7.5t-3.5 27.5z" />
<glyph unicode="N" horiz-adv-x="1228" d="M172 35v1335q0 23 6 29t29 6h147q18 0 25.5 -4t15.5 -23l389 -780q49 -96 95 -242q-8 96 -9 217v797q0 23 6.5 29t28.5 6h123q23 0 29 -6t6 -29v-1335q0 -23 -6 -29t-29 -6h-123q-29 0 -43 29l-413 839q-49 96 -95 242q12 -152 13 -225v-850q0 -23 -7.5 -29t-29.5 -6 h-123q-23 0 -29 6t-6 29z" />
<glyph unicode="O" horiz-adv-x="1173" d="M102 711q0 332 119 529.5t373 197.5q477 0 477 -725q0 -743 -491 -744q-478 1 -478 742zM342 705q0 -274 57.5 -416t186.5 -142q127 0 186 134.5t59 420.5q0 555 -241 555q-127 0 -187.5 -133.5t-60.5 -418.5z" />
<glyph unicode="P" horiz-adv-x="1040" d="M195 35v1335q0 23 5 29t27 6h324q256 0 352 -95.5t96 -285.5q0 -213 -122.5 -329.5t-323.5 -116.5h-133v-543q0 -23 -7 -29t-30 -6h-156q-23 0 -27.5 6t-4.5 29zM420 766h104q127 0 190.5 57.5t63.5 190.5q0 123 -53 170t-188 47h-117v-465z" />
<glyph unicode="Q" horiz-adv-x="1173" d="M102 698q0 162 26 292t82 232.5t152.5 159t229.5 56.5q479 0 479 -721q0 -403 -139 -588q88 -80 198 -149q16 -12 17 -25q0 -6 -8 -12l-127 -90q-14 -8 -25 -9q-25 0 -86 48.5t-127 117.5q-90 -41 -192 -41q-480 0 -480 729zM342 705q0 -557 242 -558q129 0 188 134.5 t59 423.5q0 553 -241 552q-127 0 -187.5 -133.5t-60.5 -418.5z" />
<glyph unicode="R" horiz-adv-x="1116" d="M195 39v1331q0 23 5 29t27 6h326q246 0 345 -93t99 -284q0 -289 -247 -395l317 -565q12 -25 12 -33q0 -14 -20 -21l-160 -39q-16 -4 -18 -4q-12 0 -23 23l-311 612h-131v-571q0 -23 -7.5 -29t-29.5 -6h-152q-23 0 -27.5 7t-4.5 32zM416 780h106q131 0 190.5 57.5 t59.5 184.5q0 119 -52 165t-183 46h-121v-453z" />
<glyph unicode="S" horiz-adv-x="1011" d="M84 92q0 10 6 25l51 133q6 12 16.5 12t41.5 -18q152 -80 290 -80q100 0 159 53t59 147.5t-47.5 143.5t-219.5 141q-88 47 -129 73t-98 76t-80.5 111.5t-23.5 141.5q0 172 117.5 276.5t310.5 104.5q199 0 346 -93q20 -14 20 -24q0 -2 -4 -15l-53 -122q-6 -16 -20.5 -16.5 t-37.5 14.5q-137 72 -249 71q-96 0 -150.5 -46t-54.5 -128q0 -72 36 -112.5t154 -104.5q197 -106 254 -151q150 -121 150 -320q0 -186 -121 -299t-320 -113q-96 0 -249.5 40t-153.5 79z" />
<glyph unicode="T" horiz-adv-x="849" d="M2 1247v123q0 23 6 29t29 6h823q35 0 35 -19q0 -10 -6 -28l-37 -119q-8 -29 -35 -29h-276v-1175q0 -23 -5.5 -29t-27.5 -6h-156q-23 0 -30 6t-7 29v1175h-278q-23 0 -29 7t-6 30z" />
<glyph unicode="U" horiz-adv-x="1249" d="M162 424v946q0 23 7 29t30 6h153q23 0 29 -6t6 -29v-942q0 -156 52.5 -218.5t181.5 -62.5q133 0 193 67t60 212v944q0 23 6.5 29t28.5 6h146q23 0 29 -6t6 -29v-942q0 -231 -125 -345t-357 -114q-233 0 -339.5 114t-106.5 341z" />
<glyph unicode="V" horiz-adv-x="1054" d="M33 1364q0 18 30 25l162 32q20 4 25 4q16 0 20 -30l217 -959q14 -68 45 -231q31 166 48 231l229 955q8 29 20 28q8 0 15 -2l174 -35q16 -2 16 -20q0 -4 -4 -21l-366 -1327q-4 -18 -11.5 -22t-27.5 -4h-189q-16 0 -21 1t-9.5 6t-8.5 19l-358 1323q0 4 -3 13.5t-3 13.5z " />
<glyph unicode="W" horiz-adv-x="1523" d="M66 1366q0 16 28 23l146 24q6 0 14 3t12 3q10 0 17 -30l149 -848q14 -82 29 -301q33 252 49 323l170 809q4 20 10 25.5t27 5.5h137q23 0 29 -6t10 -29l151 -827q27 -145 43 -310q14 211 39 342l148 813q6 29 22 29l170 -33q16 -2 17 -18q0 -6 -4 -23l-289 -1325 q-4 -18 -11.5 -23t-27.5 -5h-158q-23 0 -29 4t-8 24l-127 727q-45 256 -53 361q-4 -51 -63 -361l-150 -727q-4 -20 -10 -24t-27 -4h-155q-23 0 -29 4t-10 24l-262 1325q-4 21 -4 25z" />
<glyph unicode="X" horiz-adv-x="1048" d="M29 47q0 10 12 33l367 659l-336 592q-10 20 -11 27q0 14 23 20l154 43q20 4 24 4q14 0 25 -24l190 -365q31 -55 60 -131q39 100 53 131l184 367q14 25 25 24q8 0 22 -6l148 -47q25 -8 24 -18q0 -8 -14 -31l-326 -586l377 -667q12 -18 12 -29q0 -14 -26 -20l-156 -43 q-18 -6 -24 -7q-8 0 -23 25l-225 438q-39 78 -53 115q-18 -45 -56 -115l-227 -436q-10 -23 -23 -23q-6 0 -24 7l-150 41q-26 8 -26 22z" />
<glyph unicode="Y" horiz-adv-x="962" d="M-20 1366q0 14 16 16l182 37q8 2 19 2q12 0 24 -22l203 -430q41 -86 76 -187q10 23 31.5 82.5t35.5 89.5l213 443q12 25 23 24l182 -45q14 -2 14 -14q0 -6 -14 -35l-377 -741v-551q0 -23 -7 -29t-30 -6h-153q-23 0 -28 6t-5 29v551l-395 749q-10 21 -10 31z" />
<glyph unicode="Z" horiz-adv-x="983" d="M68 35v137l579 1047h-516q-37 0 -37 18q0 8 2 12l39 146q2 10 31 10h694q23 0 28 -6t5 -29v-141l-574 -1030h592q31 0 31 -27v-4l-16 -141q-2 -27 -29 -27h-797q-23 0 -27.5 6t-4.5 29z" />
<glyph unicode="[" horiz-adv-x="831" d="M258 -383v1813q0 23 7 28.5t30 5.5h377q23 0 29 -6t6 -28v-99q0 -23 -6.5 -29t-28.5 -6h-205v-1546h205q23 0 29 -6t6 -31v-96q0 -23 -6.5 -30t-28.5 -7h-377q-23 0 -30 7t-7 30z" />
<glyph unicode="\" horiz-adv-x="1079" d="M84 1563q0 16 31 16h127q31 0 43 -27l678 -1687q8 -20 8 -25q0 -14 -31 -14h-127q-35 0 -45 29l-678 1685q-6 17 -6 23z" />
<glyph unicode="]" horiz-adv-x="831" d="M127 -287q0 25 5 31t28 6h207v1546h-207q-23 0 -28 6.5t-5 28.5v99q0 23 5 28.5t28 5.5h379q23 0 28.5 -6t5.5 -28v-1813q0 -23 -6 -30t-28 -7h-379q-23 0 -28 6t-5 31v96z" />
<glyph unicode="^" horiz-adv-x="1083" d="M68 756q0 8 8 22l321 598q16 29 29 33q6 2 18 2h211q20 0 26.5 -6t18.5 -29l324 -598q8 -14 8 -22q0 -12 -26 -13h-152q-14 0 -22.5 4.5t-10.5 7.5t-12 21l-260 473l-258 -473q-12 -23 -18.5 -28t-28.5 -5h-152q-24 1 -24 13z" />
<glyph unicode="_" d="M8 -139h1053v-140h-1053v140z" />
<glyph unicode="`" horiz-adv-x="1046" d="M180 1333q0 6 10 27l60 104q12 20 26 21q10 0 33 -15l305 -208q20 -12 21 -25q0 -6 -10 -27l-29 -49q-10 -18 -18 -18q-4 0 -25 10l-348 158q-25 10 -25 22z" />
<glyph unicode="a" horiz-adv-x="983" d="M80 270q0 88 33.5 153.5t84 102.5t126 59.5t143.5 30t149 7.5v65q0 94 -35.5 132t-125.5 38q-96 0 -236 -59q-12 -4 -18 -4q-12 0 -19 14l-32 100q-4 12 -5 19q0 43 123 71.5t211 28.5q172 0 255 -73.5t83 -235.5v-402q0 -150 49 -241q6 -18 6 -21q0 -10 -10 -14 l-125 -61q-12 -6 -20 -7q-35 0 -70 125q-123 -123 -276 -123q-133 0 -212 80t-79 215zM283 285q0 -66 39.5 -110t99.5 -44q94 0 194 98v244q-51 0 -85.5 -3t-86 -13.5t-83 -28.5t-55 -55t-23.5 -88z" />
<glyph unicode="b" horiz-adv-x="1071" d="M133 47q0 10 6 19q45 76 45 208v1143q0 27 29 33l145 31q6 2 17 2q14 0 14 -27v-520q139 94 260 94q160 0 245 -125t85 -358q0 -281 -103.5 -429.5t-285.5 -148.5q-127 0 -236 94q-35 -86 -67 -86q-12 0 -21 5l-114 43q-19 8 -19 22zM389 201q74 -59 166 -60 q211 0 211 387q0 330 -176 330q-84 0 -201 -82v-575z" />
<glyph unicode="c" horiz-adv-x="849" d="M94 477q0 256 119 404.5t326 148.5q84 0 189.5 -40t105.5 -87q0 -4 -5 -12l-67 -111q-6 -8 -14 -8q-10 0 -19 8q-102 82 -188 82q-225 0 -226 -360q0 -365 217 -365q94 0 201 82q14 10 21 10q8 0 14 -14l41 -100q8 -20 8 -25q0 -43 -116.5 -82t-192.5 -39 q-197 0 -305.5 133t-108.5 375z" />
<glyph unicode="d" horiz-adv-x="1056" d="M94 485q0 260 100.5 402.5t274.5 142.5q100 0 213 -63v450q0 29 23 33l145 31q16 4 20 4q16 0 17 -31v-1165q0 -80 6 -119t31 -80l16 -33q0 -10 -12 -14l-129 -61q-6 -4 -19 -5q-37 0 -63 113q-154 -121 -295 -121q-154 0 -241 137t-87 379zM307 508q0 -197 40 -282 t134 -85q104 0 201 95v571q-94 51 -178 51q-106 0 -151.5 -81t-45.5 -269z" />
<glyph unicode="e" horiz-adv-x="983" d="M94 496q0 244 117 389t309 145q188 0 288.5 -131t100.5 -377v-14q0 -23 -2 -34t-9 -19.5t-21 -8.5h-570q12 -301 248 -301q43 0 84 9.5t59.5 15.5t60.5 27l46 22q8 4 10 4q10 0 16 -16l48 -103q6 -12 6 -20q0 -41 -129 -78t-221 -37q-209 0 -325 138.5t-116 388.5z M309 604h381q-6 270 -182 270q-179 0 -199 -270z" />
<glyph unicode="f" horiz-adv-x="622" d="M31 862v111q0 16 7 21t28 5h141v121q0 193 76.5 278t228.5 85q74 0 155 -22.5t81 -49.5q0 -2 -5 -18l-36 -113q-2 -12 -19 -12q-12 0 -24 6q-74 35 -132 35q-72 0 -96 -38t-24 -151v-121h268q23 0 22 -14l-2 -2v-6l-32 -115q-6 -23 -21 -22h-235v-813q0 -18 -5.5 -22.5 t-23.5 -4.5h-147q-20 0 -24.5 5t-4.5 24v811h-146q-30 -1 -30 22z" />
<glyph unicode="g" horiz-adv-x="1040" d="M94 494q0 254 100.5 395t280.5 141q127 0 244 -90q2 4 10 23l12 27q4 9 11.5 21.5t15.5 18.5t18 6q2 0 15 -4l129 -57q16 -6 16 -19q0 -6 -6 -16q-59 -102 -59 -231v-312q0 -88 4 -225t4 -209q0 -197 -89 -295t-282 -98q-88 0 -234.5 36t-146.5 70q0 4 4 21l39 113 q6 16 19 16q6 0 26 -8q160 -72 279 -72q102 0 144 45t42 152q0 117 -8 172q-123 -94 -260 -95q-152 0 -240 128.5t-88 345.5zM307 522q0 -330 168 -329q92 0 203 86v520q-96 59 -170 59q-96 0 -148.5 -87t-52.5 -249z" />
<glyph unicode="h" horiz-adv-x="1089" d="M172 29v1388q0 27 29 33l137 29q16 4 22 4q16 0 17 -29v-553q137 129 295 129q150 0 205 -81t55 -234v-686q0 -18 -6 -23.5t-25 -5.5h-145q-20 0 -24.5 6t-4.5 27v653q0 96 -28.5 134t-98.5 38q-100 0 -223 -106v-723q0 -18 -5 -23.5t-24 -5.5h-143q-20 0 -26.5 5.5 t-6.5 23.5z" />
<glyph unicode="i" horiz-adv-x="585" d="M18 870v99q0 20 5.5 25t25.5 5h334q18 0 23.5 -5t5.5 -25v-940q0 -18 -4.5 -23.5t-22.5 -5.5h-149q-20 0 -24.5 5t-4.5 26v809h-158q-20 0 -25.5 5t-5.5 25zM154 1329q0 59 43 102.5t102 43.5t102 -43t43 -103q0 -61 -42 -103t-103 -42q-59 0 -102 42t-43 103z" />
<glyph unicode="j" horiz-adv-x="598" d="M-139 -391q0 6 6 20l41 119q6 12 16 12q6 0 23 -6q84 -37 143 -37q78 0 103.5 51.5t25.5 206.5v865h-164q-18 0 -21 4t-3 26v99q0 23 5 26.5t25 3.5h338q16 0 20.5 -5t4.5 -25v-1012q0 -238 -79 -326t-245 -88q-61 0 -150 20.5t-89 45.5zM166 1329q0 59 42 102.5 t103 43.5q59 0 102.5 -43t43.5 -103q0 -61 -43 -103t-103 -42q-61 0 -103 42t-42 103z" />
<glyph unicode="k" horiz-adv-x="983" d="M172 29v1388q0 27 29 33l141 29q16 4 20 4q18 0 19 -29v-872l405 430q10 10 21 10q8 0 33 -16l82 -62q14 -12 14 -20q0 -10 -14 -25l-340 -352l366 -441q16 -20 17 -26q0 -10 -17 -19l-125 -75q-10 -8 -18 -9q-10 0 -19 13l-405 502v-463q0 -18 -5 -23.5t-24 -5.5h-147 q-20 0 -26.5 5.5t-6.5 23.5z" />
<glyph unicode="l" horiz-adv-x="565" d="M158 271v91v52v1003q0 27 26 33l154 33q6 2 14 2q16 0 17 -31v-1210q0 -88 69 -88q39 0 74 16q12 6 18 6q10 0 17 -14l35 -119q0 -2 3 -9t3 -11q0 -20 -72 -36t-123 -16q-49 0 -88 10.5t-63.5 29t-42 44t-25.5 59.5t-12 72.5t-4 82.5z" />
<glyph unicode="m" horiz-adv-x="1574" d="M158 952q0 14 14 21l125 51q12 4 16 4q39 0 66 -131q86 72 152.5 102.5t142.5 30.5q150 0 211 -133q164 133 305 133q72 0 120 -24.5t69.5 -71.5t29.5 -97.5t8 -119.5v-688q0 -18 -6 -23.5t-25 -5.5h-145q-18 0 -23.5 5t-5.5 24v678q0 84 -25.5 119.5t-84.5 35.5 q-78 0 -193 -90v-745q0 -18 -4 -22.5t-24 -4.5h-146q-18 0 -24 5t-6 24v665q0 88 -27 126t-86 38q-82 0 -191 -88v-741q0 -18 -5 -23.5t-23 -5.5h-146q-20 0 -25 4t-5 25v712q0 106 -25 166q-14 33 -14 45z" />
<glyph unicode="n" horiz-adv-x="1105" d="M141 950q0 8 15 17l135 61q4 2 12 2q27 0 72 -139q66 51 98.5 73.5t88.5 43t116 20.5q143 0 206.5 -71.5t63.5 -241.5v-686q0 -18 -6 -23.5t-24 -5.5h-148q-18 0 -22.5 4t-4.5 25v657q0 90 -30.5 131t-98.5 41q-106 0 -223 -106v-723q0 -18 -5 -23.5t-24 -5.5h-147 q-18 0 -23.5 5t-5.5 24v698q0 119 -39 203q-6 12 -6 20z" />
<glyph unicode="o" horiz-adv-x="1040" d="M94 498q0 250 115 391t317 141q199 0 310.5 -139t111.5 -389q0 -248 -115.5 -390.5t-316.5 -142.5t-311.5 139.5t-110.5 389.5zM315 506q0 -190 50.5 -279.5t157 -89.5t155.5 89t49 280q0 356 -205 356q-207 0 -207 -356z" />
<glyph unicode="p" d="M135 940q0 12 12 18l134 68q10 6 16 6q33 0 68 -117q141 115 274 115q338 0 338 -510q0 -266 -92 -408.5t-267 -142.5q-113 0 -225 72v-406q0 -25 -24 -30l-150 -37q-6 -2 -16 -2q-16 0 -17 31v1118q0 111 -34 180q-17 41 -17 45zM393 203q102 -61 185 -62q104 0 145 83 t41 290q0 182 -40 263t-132 81q-84 0 -199 -88v-567z" />
<glyph unicode="q" horiz-adv-x="1040" d="M94 483q0 258 97.5 402.5t269.5 144.5q129 0 254 -96q41 98 71 98q6 0 19 -4l117 -51q16 -8 16 -21q0 -8 -8 -24.5t-8 -18.5q-37 -84 -37 -204v-1067q0 -31 -25 -35l-153 -37q-8 -2 -17 -2q-14 0 -14 29v471q-115 -98 -248 -99q-156 0 -245 136t-89 378zM309 502 q0 -360 172 -361q96 0 195 97v550q-92 70 -180 70q-187 0 -187 -356z" />
<glyph unicode="r" horiz-adv-x="733" d="M137 948q0 12 15 19l122 57q12 4 19 4q27 0 52.5 -66.5t27.5 -97.5q4 6 14 17q45 51 70.5 75.5t73 49t98.5 24.5q41 0 76.5 -12t35.5 -31q0 -8 -6 -16l-53 -131q-8 -20 -20 -21h-5q-57 16 -75 17q-72 0 -181 -125v-682q0 -20 -4 -24.5t-24 -4.5h-146q-18 0 -24 5t-6 24 v620q0 172 -41 256z" />
<glyph unicode="s" horiz-adv-x="862" d="M86 76q0 2 3 9t5 13l43 105q6 14 15 14q4 0 24 -10q152 -74 258 -74q63 0 102 35t39 94q0 29 -10 48.5t-39.5 40t-63.5 35.5t-99.5 50t-126.5 72q-115 72 -115 213q0 135 95 222t245 87q76 0 181.5 -28.5t105.5 -65.5q0 -8 -7 -21l-43 -90q-8 -16 -20 -16q-8 0 -21 6 q-113 51 -192 51q-70 0 -106.5 -31.5t-36.5 -89.5q0 -43 25.5 -69.5t98.5 -65.5q219 -119 256 -149q72 -55 78 -152v-28q0 -139 -93 -225.5t-245 -86.5q-190 0 -336 88q-20 13 -20 19z" />
<glyph unicode="t" horiz-adv-x="735" d="M29 870v99q0 18 6 24t26 6h142v269q0 25 26 30l138 27q20 4 24 4q16 0 17 -29v-301h270q27 0 27 -16q0 -4 -5 -20l-22 -97q-6 -27 -31 -26h-239v-537q0 -90 19 -119.5t81 -29.5q59 0 156 41q8 4 18 4q12 0 18 -25l29 -104q4 -16 4 -21q0 -29 -101.5 -52.5t-166.5 -23.5 q-150 0 -206 79t-56 231v557h-142q-20 0 -26 6t-6 24z" />
<glyph unicode="u" horiz-adv-x="1071" d="M150 305v653q0 25 26 31l139 35q6 2 19 2q20 0 20 -27v-647q0 -119 30 -165t105 -46q106 0 213 90v727q0 25 27 31l141 35q16 4 23 4q14 0 14 -29v-733q0 -129 45 -205q8 -12 9 -18q0 -10 -15 -16l-129 -50q-12 -4 -16 -4q-41 0 -70 117q-137 -121 -289 -121 q-162 0 -227 85t-65 251z" />
<glyph unicode="v" horiz-adv-x="919" d="M20 973q0 14 25 16l156 25q2 0 6 1t6 1q18 0 25 -25l176 -567q27 -86 53 -215q33 147 55 213l193 569q8 23 24 23q12 0 19 -2l131 -25q23 -6 22 -16q0 -6 -6 -25l-352 -950q-8 -23 -33 -23h-123q-16 0 -20 3.5t-10 19.5l-340 952q-7 15 -7 25z" />
<glyph unicode="w" horiz-adv-x="1331" d="M59 967q0 14 25 20l141 29q8 2 17 2q10 0 16 -27l107 -499q2 -4 45 -291q16 164 34 227l146 547q4 18 8 22t20 4h136q14 0 19 -4t9 -22l131 -576q10 -43 29 -196q16 147 37 237l133 551q4 25 21 25q4 0 24 -4l123 -27q23 -6 23 -14t-7 -25l-274 -938q-6 -23 -29 -22h-121 q-14 0 -20 1t-11 6t-7 17l-129 572q-4 18 -27 196q-16 -133 -33 -194l-160 -574q-4 -16 -9 -20t-17 -4h-127q-25 0 -31 24l-240 940q-2 7 -2 17z" />
<glyph unicode="x" horiz-adv-x="960" d="M39 49q0 6 10 21l326 438l-283 403q-12 14 -12 26.5t16 18.5l142 56l16 4q10 0 20 -17l148 -233l65 -111q20 33 74 111l158 231q12 18 22 19q4 0 25 -8l129 -52q16 -6 16 -18q0 -10 -14 -29l-289 -393l318 -457q8 -10 8 -20q0 -12 -25 -19l-135 -43q-16 -4 -18 -4 q-14 0 -25 17l-176 270q-49 72 -66 102q-33 -55 -63 -100l-186 -272q-12 -18 -23 -19q-8 0 -20 9l-131 49q-27 12 -27 20z" />
<glyph unicode="y" horiz-adv-x="913" d="M8 -344q0 6 2 10l58 117q6 10 12 10q2 0 18 -8q92 -57 164 -57q59 0 96 38.5t66 127.5l33 106h-82q-27 0 -35 23l-320 915q-6 16 -6 25q0 12 25 18l154 31q4 0 8 1t6 1q20 0 29 -25l198 -639q18 -57 62 -252q4 27 11 69l13 76q6 34 15 62l167 684q6 27 21 27q2 0 5 -1 t5 -1l158 -39q14 -2 14 -17q0 -8 -2 -12l-237 -848l-22 -81l-24 -91q-9 -33 -28 -88t-37 -88t-47 -74t-60.5 -63.5t-76.5 -38.5t-97 -16q-66 0 -166 31.5t-100 66.5z" />
<glyph unicode="z" horiz-adv-x="870" d="M68 29v112l495 690h-424q-20 0 -25 5.5t-5 25.5v107q0 18 5 24t25 6h631q18 0 24.5 -6t6.5 -24v-117l-488 -678h490q31 0 31 -12q0 -2 -9 -23l-49 -116q-8 -23 -33 -23h-647q-20 0 -24 4.5t-4 24.5z" />
<glyph unicode="{" d="M293 465v106q0 18 18.5 34t40 28t40 50t18.5 97v350q0 158 72.5 226.5t236.5 68.5h22q39 0 52.5 -1t19.5 -8t6 -25v-113q0 -23 -6 -28t-29 -5q-102 -2 -137 -32.5t-35 -133.5v-315q0 -104 -25.5 -155.5t-101.5 -96.5q70 -41 98.5 -98.5t28.5 -159.5v-305q0 -106 33 -139 t139 -33q23 0 29 -5t6 -28v-111q0 -8 -2 -14t-8 -10t-10 -6t-14.5 -3t-14.5 -1h-16h-15h-39q-158 2 -224 73.5t-66 233.5v338q0 66 -18.5 106.5t-40 54t-40 28t-18.5 32.5z" />
<glyph unicode="|" d="M434 -315v1687q0 23 5 28t28 5h135q23 0 30 -6t7 -27v-1687q0 -23 -7 -29t-30 -6h-135q-23 0 -28 6t-5 29z" />
<glyph unicode="}" d="M285 -256q0 23 5 27t29 6q106 4 139.5 33.5t33.5 134.5v315q0 104 25.5 155.5t98.5 96.5q-70 41 -97 97.5t-27 158.5v307q0 106 -33 138t-140 32q-23 0 -28.5 6t-5.5 29v111q0 8 2 14t8 9t11 5t14.5 3t14.5 1h16h14h36q158 -2 224.5 -72.5t66.5 -232.5v-338 q0 -66 18.5 -107.5t41 -54t41 -28t18.5 -33.5v-104q0 -18 -18.5 -34t-41 -28t-41 -50t-18.5 -97v-350q0 -158 -71.5 -226.5t-235.5 -68.5h-23q-39 0 -52 1t-19 8t-6 25v111z" />
<glyph unicode="~" horiz-adv-x="1435" d="M223 1288q0 8 8 25q61 129 125 181t162 52q72 0 230 -65q98 -41 126.5 -50.5t65.5 -9.5q100 0 158 99q14 23 22 22.5t23 -8.5l65 -39q20 -12 21 -20q0 -2 -12 -27q-111 -221 -299 -221q-70 0 -191 49l-111 45q-68 29 -112 29q-49 0 -84 -26t-72 -87q-12 -20 -22 -20 q-12 0 -25 10l-59 39q-19 10 -19 22z" />
<glyph unicode="&#xa3;" horiz-adv-x="1077" d="M59 651v90q0 23 5.5 29t27.5 6h141q-29 111 -28 199q0 178 122 284.5t324 106.5q90 0 212 -33t122 -69q0 -6 -8 -23l-55 -104q-8 -14 -19 -15q-8 0 -24 8q-12 4 -38 15.5t-37 15.5t-33.5 11.5t-38 10.5t-38 6t-47.5 3q-113 0 -178.5 -61.5t-65.5 -163.5q0 -55 33 -189 h279q23 0 28 -6t5 -29v-92q0 -23 -5.5 -30t-27.5 -7h-248q35 -145 35 -227q0 -76 -27 -207h547q33 0 33 -18q0 -12 -4 -23l-33 -110q-8 -29 -39 -29h-868q-23 0 -29 6t-6 29v110q0 23 6 29t29 6h161q25 106 25 209q0 104 -29 225h-176q-23 0 -28 7t-5 30z" />
<glyph unicode="&#xa8;" horiz-adv-x="1040" d="M205 1327q0 53 35.5 91t87 38t89.5 -38t38 -91q0 -51 -38 -88t-89.5 -37t-87 37t-35.5 88zM588 1327q0 53 37 91t88 38t88 -38t37 -91t-36 -89t-89 -36q-51 0 -88 37t-37 88z" />
<glyph unicode="&#xa9;" horiz-adv-x="1497" d="M78 700q0 307 197.5 519.5t482.5 212.5q270 0 465.5 -216.5t195.5 -513.5q0 -301 -195.5 -515t-473.5 -214q-276 0 -474 214t-198 513zM217 702.5q0 -251.5 155.5 -431t377.5 -179.5q219 0 375.5 178.5t156.5 429.5q0 256 -156.5 434.5t-382.5 178.5 q-217 0 -371.5 -179.5t-154.5 -431zM436 713q0 207 83 318.5t235 111.5q74 0 152.5 -36t78.5 -69q0 -8 -4 -12q-57 -84 -70 -84l-10 6q-12 6 -28.5 16.5t-36 19.5t-40 15.5t-36.5 6.5q-145 0 -146 -277q0 -330 160 -330q49 0 123 52q10 8 23 8q10 0 22 -17l41 -59 q6 -10 6 -18q0 -35 -74.5 -69t-152.5 -34q-160 0 -243 116t-83 335z" />
<glyph unicode="&#xab;" horiz-adv-x="1130" d="M84 502q0 12 10 24l346 443q14 18 23 18q6 0 22 -10l80 -45q23 -10 23 -25q0 -8 -10 -24l-256 -387l256 -381q10 -16 10 -25q0 -10 -23 -24l-80 -48q-20 -10 -22 -10q-8 0 -23 19l-346 450q-10 11 -10 25zM508 501.5q0 14.5 10 24.5l344 443q14 18 25 18q8 0 24 -10 l78 -45q23 -10 23 -25q0 -8 -11 -24l-253 -387l251 -381q12 -18 13 -27q0 -10 -23 -22l-78 -48q-20 -10 -24 -10q-10 0 -25 19l-344 450q-10 10 -10 24.5z" />
<glyph unicode="&#xad;" horiz-adv-x="755" d="M86 459v131q0 20 7 26.5t30 6.5h514q23 0 28 -5.5t5 -27.5v-131q0 -23 -5.5 -28t-27.5 -5h-514q-25 0 -31 5t-6 28z" />
<glyph unicode="&#xae;" horiz-adv-x="1497" d="M78 700q0 307 197.5 519.5t482.5 212.5q270 0 465.5 -216.5t195.5 -513.5q0 -301 -195.5 -515t-473.5 -214q-276 0 -474 214t-198 513zM217 702.5q0 -251.5 155.5 -431t377.5 -179.5q219 0 375.5 178.5t156.5 429.5q0 256 -156.5 434.5t-382.5 178.5 q-217 0 -371.5 -179.5t-154.5 -431zM489 336v751q0 33 35 33h199q152 0 219.5 -54t67.5 -171q0 -164 -146 -231l189 -310q8 -10 8 -20q0 -18 -29 -25l-88 -20q-6 -4 -14 -4q-16 0 -29 20l-184 338h-68v-309q0 -33 -35 -33h-90q-20 0 -27.5 7.5t-7.5 27.5zM649 768h53 q78 0 112 28.5t34 94.5q0 59 -30 82.5t-107 23.5h-62v-229z" />
<glyph unicode="&#xb0;" d="M225 1100q0 125 91.5 214t218.5 89t218 -89t91 -214t-91 -214t-218 -89t-218.5 89t-91.5 214zM352 1100q0 -76 53.5 -131.5t129.5 -55.5q74 0 129 56.5t55 130.5q0 76 -54.5 129t-130 53t-129 -54t-53.5 -128z" />
<glyph unicode="&#xb4;" horiz-adv-x="1050" d="M424 1241q0 6 20 21l316 215q14 12 24 12q8 0 21 -23l67 -108q10 -16 11 -23q0 -12 -31 -24l-350 -160q-14 -6 -22.5 -6t-14.5 12l-35 66q-6 12 -6 18z" />
<glyph unicode="&#xbb;" horiz-adv-x="1124" d="M127 88q0 8 12 27l254 381l-254 387q-10 12 -10 26q0 10 21 23l79 45q16 10 24.5 10t22.5 -18l345 -443q10 -14 10 -24t-10 -25l-345 -450q-14 -18 -22 -19q-4 0 -25 10l-79 48q-23 14 -23 22zM551 90q0 8 10 25l256 381l-256 387q-10 16 -10 22q0 12 24 27l78 45 q16 10 25 10q6 0 22 -18l347 -443q10 -16 10 -24q0 -10 -10 -25l-347 -450q-16 -18 -22 -19q-4 0 -25 10l-80 48q-22 14 -22 24z" />
<glyph unicode="&#x2c6;" horiz-adv-x="1083" d="M68 756q0 8 8 22l321 598q16 29 29 33q6 2 18 2h211q20 0 26.5 -6t18.5 -29l324 -598q8 -14 8 -22q0 -12 -26 -13h-152q-14 0 -22.5 4.5t-10.5 7.5t-12 21l-260 473l-258 -473q-12 -23 -18.5 -28t-28.5 -5h-152q-24 1 -24 13z" />
<glyph unicode="&#x2da;" horiz-adv-x="477" d="M-310 426q0 125 91.5 214t218.5 89t218 -89t91 -214t-91 -214t-218 -89t-218.5 89t-91.5 214zM-183 426q0 -76 53.5 -131.5t129.5 -55.5q74 0 129 56.5t55 130.5q0 76 -54.5 129t-130 53t-129 -54t-53.5 -128z" />
<glyph unicode="&#x2dc;" horiz-adv-x="477" d="M-502 194q0 8 8 25q61 129 125 181t162 52q72 0 230 -65q98 -41 126.5 -50.5t65.5 -9.5q100 0 158 99q14 23 22 22.5t23 -8.5l65 -39q20 -12 21 -20q0 -2 -12 -27q-111 -221 -299 -221q-70 0 -191 49l-111 45q-68 29 -112 29q-49 0 -84 -26t-72 -87q-12 -20 -22 -20 q-12 0 -25 10l-59 39q-19 10 -19 22z" />
<glyph unicode="&#x401;" horiz-adv-x="976" d="M195 20v1364q0 20 20 21h672q35 0 35 -16q0 -6 -2 -11l-39 -129q-2 -8 -4.5 -12t-6.5 -8t-11 -6t-17 -2h-422v-400h383q23 0 22 -20v-135q0 -23 -22 -23h-383v-459h471q20 0 20 -22v-139q0 -23 -22 -23h-674q-20 0 -20 20zM233 1663q0 55 36 91t91 36q53 0 90 -36t37 -91 q0 -53 -36.5 -90t-90.5 -37q-55 0 -91 37t-36 90zM643 1663q0 55 36 91t91 36q53 0 90 -36t37 -91q0 -53 -37 -90t-90 -37q-55 0 -91 37t-36 90z" />
<glyph unicode="&#x410;" horiz-adv-x="1150" d="M49 20q0 16 6 31l408 1325q6 20 11 24.5t26 4.5h168q20 0 25 -4t12 -25l407 -1325q6 -14 6 -28q0 -23 -35 -23h-176q-18 0 -26.5 5t-12.5 24l-100 366h-381l-100 -366q-4 -18 -12.5 -23.5t-26.5 -5.5h-164q-35 0 -35 20zM420 563h301l-103 412q-20 82 -47 225 q-20 -127 -45 -225z" />
<glyph unicode="&#x411;" horiz-adv-x="1165" d="M195 33v1341q0 31 30 31h721q23 0 23 -19q0 -8 -2 -14l-35 -123q-8 -29 -41 -28h-471v-385h172q55 0 105.5 -6.5t119 -31t115.5 -66.5t82 -123t35 -191q0 -193 -107 -299q-119 -119 -373 -119h-342q-32 0 -32 33zM420 180h135q137 0 203 66q61 61 61 168q0 119 -61 178 q-66 63 -197 63h-141v-475z" />
<glyph unicode="&#x412;" horiz-adv-x="1173" d="M195 35v1335q0 23 5 29t27 6h336q147 0 218 -17.5t122 -68.5q102 -98 103 -262q0 -225 -203 -322q254 -70 254 -342q0 -141 -75 -244.5t-196 -130.5q-78 -18 -235 -18h-324q-23 0 -27.5 6t-4.5 29zM410 180h149q139 0 202.5 53.5t63.5 170t-65.5 172t-204.5 55.5h-145 v-451zM410 803h133q233 0 233 229q0 109 -51 156t-166 47h-149v-432z" />
<glyph unicode="&#x413;" horiz-adv-x="970" d="M195 33v1343q0 29 28 29h672q27 0 27 -23q0 -2 -1 -5t-1 -5l-41 -141q-8 -23 -31 -23h-428v-1175q0 -33 -33 -33h-160q-32 0 -32 33z" />
<glyph unicode="&#x414;" horiz-adv-x="1228" d="M31 154q0 31 24 30h72q94 186 131 414q27 166 27 444v328q0 35 32 35h678q31 0 31 -33v-1188h100q31 0 31 -34v-461q0 -33 -33 -33h-139q-33 0 -33 33v311h-716v-311q0 -33 -33 -33h-140q-33 0 -32 33v465zM342 184h459v1041h-312v-158q0 -559 -147 -883z" />
<glyph unicode="&#x415;" horiz-adv-x="983" d="M195 35v1335q0 23 5 29t27 6h660q33 0 33 -19q0 -6 -5 -22l-34 -115q-8 -29 -39 -28h-422v-400h371q23 0 28.5 -6t5.5 -29v-110q0 -20 -6 -26.5t-28 -6.5h-371v-457h457q23 0 28.5 -7t5.5 -29v-115q0 -23 -6 -29t-28 -6h-650q-23 0 -27.5 6t-4.5 29z" />
<glyph unicode="&#x416;" horiz-adv-x="1697" d="M39 133q0 20 27 27l38 6q33 4 50.5 12t38 43t36.5 101l43 172q29 123 88 180q25 25 95 59q-117 53 -156 221l-31 129q-20 84 -41.5 117t-83.5 47l-30 6q-27 6 -27 27q0 8 2 12l37 119q6 25 41 25q68 0 120 -25t83.5 -68t50 -84.5t29.5 -91.5l38 -170q23 -104 56 -137 q39 -39 135 -39h59v559q0 25 23 25h178q23 0 23 -33v-551h59q96 0 135 39q33 33 55 137l39 170q10 49 28.5 91t50.5 85t84 68t120 25q35 0 41 -25l37 -119q2 -4 2 -12q0 -20 -27 -27l-31 -6q-61 -14 -82.5 -47t-41.5 -117l-31 -129q-39 -168 -156 -221q70 -35 94 -59 q59 -57 88 -180l43 -172q16 -66 37 -101t38.5 -43t49.5 -12l39 -6q27 -6 27 -27q0 -6 -2 -10l-45 -137q-6 -16 -27 -17q-166 0 -242 80q-43 45 -71 172l-53 244q-41 172 -172 172h-86v-604q0 -33 -27 -33h-168q-29 0 -29 33v604h-86q-131 0 -172 -172l-53 -244 q-29 -127 -72 -172q-76 -80 -241 -80q-20 0 -27 17l-45 137q-2 4 -2 10z" />
<glyph unicode="&#x417;" horiz-adv-x="1021" d="M51 131q0 10 4 16l64 111q6 8 16 8q14 0 27 -10l20 -14q127 -88 238 -88q248 0 248 247q0 121 -75 176.5t-177 55.5h-78q-33 0 -33 33v114q0 33 33 33h57q121 0 183 59q59 59 59 162q0 90 -56.5 154.5t-156.5 64.5q-104 0 -203 -79l-22 -19q-8 -8 -23 -8q-16 0 -24 12 l-58 82q-10 16 -10 25q0 14 18 32q133 139 359 140q121 0 206 -40t123.5 -104.5t53 -121t14.5 -113.5q0 -246 -207 -316q248 -82 248 -348q0 -190 -108 -303q-119 -123 -340 -123q-158 0 -261 47q-51 23 -95 55.5t-44 59.5z" />
<glyph unicode="&#x418;" horiz-adv-x="1314" d="M195 33v1339q0 33 32 33h160q33 0 33 -33v-772q0 -35 -14 -235h6l94 235l371 782q12 23 32 23h183q33 0 32 -33v-1339q0 -33 -32 -33h-160q-33 0 -33 33v825q0 94 14 205h-6q-27 -98 -84 -215l-393 -819q-12 -29 -39 -29h-164q-32 0 -32 33z" />
<glyph unicode="&#x419;" horiz-adv-x="1314" d="M195 33v1339q0 33 32 33h160q33 0 33 -33v-772q0 -35 -14 -235h6l94 235l371 782q12 23 32 23h183q33 0 32 -33v-1339q0 -33 -32 -33h-160q-33 0 -33 33v825q0 94 14 205h-6q-27 -98 -84 -215l-393 -819q-12 -29 -39 -29h-164q-32 0 -32 33zM344 1741q0 29 21 31l137 14 q14 0 18 -19l4 -18q25 -121 144 -121q49 0 83.5 35t45.5 84l4 20q4 18 20 19h4l131 -14q20 -2 21 -29q0 -123 -100.5 -191.5t-204.5 -68.5q-154 0 -241 81t-87 177z" />
<glyph unicode="&#x41a;" horiz-adv-x="1189" d="M195 33v1349q0 23 20 23h178q25 0 25 -27v-555h104q137 0 170 164l35 162q33 147 88 203q41 41 101.5 62.5t101.5 21.5q29 0 37 -25l35 -119q2 -4 2 -12q0 -20 -27 -27l-41 -8q-37 -6 -61.5 -32.5t-32.5 -53t-19 -76.5l-28 -129q-37 -172 -156 -221q61 -20 109.5 -81.5 t66.5 -133.5l49 -207q8 -31 15.5 -54.5t16.5 -38.5t15.5 -24.5t18.5 -14.5t16 -7t18.5 -4t18.5 -2l39 -6q31 -10 31 -25q0 -8 -2 -12l-43 -129q-4 -16 -11.5 -20.5t-27.5 -4.5q-137 0 -207 61.5t-102 211.5l-48 219q-23 106 -63.5 142t-116.5 36h-102v-606q0 -33 -33 -33 h-158q-32 0 -32 33z" />
<glyph unicode="&#x41b;" horiz-adv-x="1234" d="M-12 131q0 27 28 31l31 4q84 10 139 61q55 53 84 219t32 294t3 356v65v213q0 31 31 31h676q33 0 32 -33v-1339q0 -33 -32 -33h-160q-33 0 -33 33v1188h-315l-2 -199q-4 -293 -27 -504q-8 -70 -21.5 -133t-44 -143t-72.5 -136.5t-113.5 -96.5t-162.5 -40q-35 0 -41 29 l-30 121q0 2 -1 6t-1 6z" />
<glyph unicode="&#x41c;" horiz-adv-x="1421" d="M158 25l67 1347q2 23 8.5 28t26.5 5h164q20 0 25.5 -4t11.5 -23l203 -612q14 -43 41 -180q33 131 49 180l209 612q6 20 11 23.5t25 3.5h162q20 0 26.5 -5t8.5 -28l70 -1333v-16q0 -14 -5.5 -18.5t-25.5 -4.5h-152q-23 0 -29.5 6t-6.5 29l-21 880q0 104 4 228 q-27 -137 -63 -250l-185 -545q-6 -18 -12 -23.5t-25 -5.5h-92q-20 0 -26 4.5t-13 24.5l-172 545q-25 88 -57 250q2 -66 2 -203l-22 -905q0 -23 -7.5 -29t-29.5 -6h-138q-32 0 -32 25z" />
<glyph unicode="&#x41d;" horiz-adv-x="1286" d="M195 35v1335q0 23 5 29t27 6h156q23 0 30 -6t7 -29v-553h450v553q0 23 6.5 29t28.5 6h154q23 0 30 -6t7 -29v-1335q0 -23 -7.5 -29t-29.5 -6h-154q-23 0 -29 6t-6 29v608h-450v-608q0 -23 -7 -29t-30 -6h-156q-23 0 -27.5 6t-4.5 29z" />
<glyph unicode="&#x41e;" horiz-adv-x="1173" d="M102 711q0 332 119 529.5t373 197.5q477 0 477 -725q0 -743 -491 -744q-478 1 -478 742zM342 707q0 -274 57.5 -415.5t186.5 -141.5q127 0 186 134t59 421q0 553 -241 552q-127 0 -187.5 -133.5t-60.5 -416.5z" />
<glyph unicode="&#x41f;" horiz-adv-x="1273" d="M195 33v1339q0 33 32 33h824q33 0 32 -33v-1339q0 -33 -32 -33h-160q-33 0 -33 33v1188h-438v-1188q0 -20 -6 -26.5t-27 -6.5h-160q-20 0 -26 6.5t-6 26.5z" />
<glyph unicode="&#x420;" horiz-adv-x="1040" d="M195 35v1335q0 23 5 29t27 6h324q256 0 352 -95.5t96 -285.5q0 -213 -122.5 -329.5t-323.5 -116.5h-133v-543q0 -23 -7 -29t-30 -6h-156q-23 0 -27.5 6t-4.5 29zM420 766h104q127 0 190.5 57.5t63.5 190.5q0 123 -53 170t-188 47h-117v-465z" />
<glyph unicode="&#x421;" horiz-adv-x="964" d="M102 719q0 102 12.5 196.5t46.5 192.5t86 169t139 116t200 45q178 0 321 -123q20 -18 21 -33q0 -10 -10 -27l-66 -104q-4 -10 -18.5 -10t-24.5 10q-125 98 -215 98q-129 0 -190.5 -120.5t-61.5 -378.5q0 -590 276 -590q92 0 197 80q18 14 29 14q12 0 20 -12l62 -99 q10 -16 10 -26q0 -12 -23 -33q-143 -115 -315 -115q-242 0 -369 191.5t-127 558.5z" />
<glyph unicode="&#x422;" horiz-adv-x="849" d="M2 1247v123q0 23 6 29t29 6h823q35 0 35 -19q0 -10 -6 -28l-37 -119q-8 -29 -35 -29h-276v-1175q0 -23 -5.5 -29t-27.5 -6h-156q-23 0 -30 6t-7 29v1175h-278q-23 0 -29 7t-6 30z" />
<glyph unicode="&#x423;" horiz-adv-x="1079" d="M51 1372q0 16 19 21l159 26q8 2 21 2q23 0 29 -18l215 -590q66 -188 84 -268h8q6 53 19 109.5t28.5 104.5t17.5 58l162 586q8 20 21 20l182 -24q14 -4 14 -17q0 -2 -1 -4t-1 -4l-332 -1128q-80 -276 -323 -277q-92 0 -168 29q-98 37 -99 72q0 2 5 14l53 121q6 14 20 14 q6 0 15 -4l20 -12q86 -53 141 -53q25 0 41.5 4t41 18t46 53t37.5 101l19 69h-99q-20 0 -30 25l-363 942q-2 4 -2 10z" />
<glyph unicode="&#x424;" horiz-adv-x="1359" d="M92 756q0 276 129 407q117 119 332 119h14v180q0 23 23 23h180q23 0 23 -27v-176h14q215 0 332 -119q129 -131 129 -407q0 -279 -129 -412q-117 -119 -332 -119h-14v-194q0 -31 -35 -31h-156q-23 0 -29 7t-6 28v190h-14q-215 0 -332 119q-129 133 -129 412zM301 762 q0 -215 78 -295q66 -68 178 -68h18v709h-18q-113 0 -178 -68q-78 -79 -78 -278zM784 399h19q113 0 178 68q78 80 78 295q0 197 -78 278q-66 68 -188 68h-9v-709z" />
<glyph unicode="&#x425;" horiz-adv-x="1048" d="M29 47q0 10 12 33l367 659l-336 592q-10 20 -11 27q0 14 23 20l154 43q20 4 24 4q14 0 25 -24l190 -365q31 -55 60 -131q39 100 53 131l184 367q14 25 25 24q8 0 22 -6l148 -47q25 -8 24 -18q0 -8 -14 -31l-326 -586l377 -667q12 -18 12 -29q0 -14 -26 -20l-156 -43 q-18 -6 -24 -7q-8 0 -23 25l-225 438q-39 78 -53 115q-18 -45 -56 -115l-227 -436q-10 -23 -23 -23q-6 0 -24 7l-150 41q-26 8 -26 22z" />
<glyph unicode="&#x426;" horiz-adv-x="1282" d="M195 33v1339q0 33 32 33h160q33 0 33 -33v-1188h432v1188q0 33 33 33h159q33 0 33 -33v-1188h111q23 0 22 -28v-467q0 -33 -32 -33h-140q-33 0 -32 33v311h-779q-32 0 -32 33z" />
<glyph unicode="&#x427;" horiz-adv-x="1200" d="M123 881v491q0 33 33 33h159q33 0 33 -33v-467q0 -94 47 -139q49 -49 154 -49q115 0 235 57v602q0 29 33 29h160q33 0 33 -33v-1339q0 -33 -33 -33h-160q-33 0 -33 33v565q-154 -61 -290 -61q-190 0 -289 102q-82 84 -82 242z" />
<glyph unicode="&#x428;" horiz-adv-x="1736" d="M195 33v1339q0 33 32 33h160q33 0 33 -33v-1188h338v1188q0 33 33 33h159q33 0 33 -33v-1188h338v1188q0 33 33 33h159q33 0 33 -33v-1339q0 -33 -33 -33h-1286q-32 0 -32 33z" />
<glyph unicode="&#x429;" horiz-adv-x="1751" d="M195 33v1339q0 33 32 33h160q33 0 33 -33v-1188h338v1188q0 33 33 33h159q33 0 33 -33v-1188h338v1188q0 33 33 33h159q33 0 33 -33v-1188h105q29 0 28 -24v-471q0 -33 -32 -33h-140q-33 0 -32 33v311h-1248q-32 0 -32 33z" />
<glyph unicode="&#x42a;" horiz-adv-x="1282" d="M8 1229q0 10 2 16l39 131q8 29 45 29h453q33 0 33 -33v-545h186q219 0 338 -118q106 -106 106 -285q0 -203 -114.5 -313.5t-345.5 -110.5h-363q-33 0 -33 31v1177h-323q-23 1 -23 21zM580 184h145q102 0 177 57.5t75 172.5q0 229 -266 229h-131v-459z" />
<glyph unicode="&#x42b;" horiz-adv-x="1644" d="M195 31v1341q0 33 32 33h160q33 0 33 -33v-545h186q219 0 338 -118q106 -106 107 -285q0 -203 -115 -313.5t-346 -110.5h-363q-32 0 -32 31zM420 184h145q102 0 177 57.5t75 172.5q0 229 -266 229h-131v-459zM1229 33v1339q0 33 33 33h159q33 0 33 -33v-1339 q0 -33 -33 -33h-159q-33 0 -33 33z" />
<glyph unicode="&#x42c;" horiz-adv-x="1122" d="M195 31v1341q0 33 32 33h160q33 0 33 -33v-545h186q219 0 338 -118q106 -106 107 -285q0 -203 -115 -313.5t-346 -110.5h-363q-32 0 -32 31zM420 184h145q102 0 177 57.5t75 172.5q0 70 -25.5 118t-66.5 70.5t-78 31.5t-74 9h-153v-459z" />
<glyph unicode="&#x42d;" horiz-adv-x="1001" d="M61 119q0 6 5 14l63 100q10 16 22.5 16.5t20.5 -7.5l23 -17q104 -76 194 -75q74 0 128 38.5t81 91t42 125t18.5 116.5t3.5 89v27h-371q-33 0 -33 33v116q0 35 35 35h369v21q0 72 -11.5 137t-37 132t-79 106.5t-126.5 39.5q-92 0 -199 -86l-25 -18q-8 -6 -14 -6 q-10 0 -20 16l-66 92q-8 12 -8 21q0 18 26 39q141 123 328 123q127 0 220 -57.5t146.5 -161t78 -232.5t24.5 -289q0 -383 -139 -563q-127 -166 -354 -166q-215 0 -328 121q-17 17 -17 29z" />
<glyph unicode="&#x42e;" horiz-adv-x="1693" d="M195 31v1341q0 20 8 26.5t28 6.5h154q35 0 35 -33v-553h207q4 55 12 109.5t27.5 130.5t55.5 138.5t86 118.5t129 89t175 33q109 0 193 -41t133 -113t82.5 -147.5t48 -169t18.5 -150.5t4 -117q0 -61 -5 -123.5t-20.5 -152.5t-49 -165t-84 -143.5t-133 -107.5t-187.5 -39 q-109 0 -193.5 42t-138 109.5t-89.5 158t-50 177.5t-16 179h-205v-600q0 -35 -29 -35h-162q-34 0 -34 31zM854 705q0 -389 102 -496q57 -59 148 -59q84 0 137 51q111 104 111 501q0 389 -111 500q-55 55 -137 55q-84 0 -139 -55q-111 -110 -111 -497z" />
<glyph unicode="&#x42f;" horiz-adv-x="1169" d="M41 135q0 20 27 25l38 6q82 12 111 119l53 209q14 55 55.5 112.5t94.5 79.5q-131 29 -189.5 122t-58.5 208q0 98 32 172t79 113.5t109.5 64.5t112.5 32t101 7h352q20 0 21 -23v-1349q0 -33 -33 -33h-160q-33 0 -32 33v571h-111q-129 0 -164 -149l-53 -219 q-41 -164 -111.5 -215.5t-185.5 -51.5q-37 0 -43 25l-43 129q-2 4 -2 12zM393 1006q0 -221 228 -222h133v437h-142q-20 0 -41.5 -3.5t-55.5 -15.5t-59.5 -33.5t-44 -64.5t-18.5 -98z" />
<glyph unicode="&#x430;" horiz-adv-x="983" d="M80 270q0 88 33.5 153.5t84 102.5t126 59.5t143.5 30t149 7.5v65q0 94 -35.5 132t-125.5 38q-96 0 -236 -59q-12 -4 -18 -4q-12 0 -19 14l-32 100q-4 12 -5 19q0 43 123 71.5t211 28.5q172 0 255 -73.5t83 -235.5v-402q0 -150 49 -241q6 -18 6 -21q0 -10 -10 -14 l-125 -61q-12 -6 -20 -7q-35 0 -70 125q-123 -123 -276 -123q-133 0 -212 80t-79 215zM283 285q0 -66 39.5 -110t99.5 -44q94 0 194 98v244q-51 0 -85.5 -3t-86 -13.5t-83 -28.5t-55 -55t-23.5 -88z" />
<glyph unicode="&#x431;" horiz-adv-x="1056" d="M102 608q0 141 12.5 240.5t47.5 204t111.5 182.5t193.5 129l375 168q8 4 18 4q18 0 25 -12l57 -121q4 -8 4 -12q0 -14 -26 -29l-412 -182q-84 -39 -139 -95q-94 -94 -109 -239l-4 -43h10q41 94 124 141t181 47q147 0 252 -96q141 -137 142 -408q0 -80 -20.5 -163.5 t-65.5 -166.5t-134.5 -136.5t-207.5 -53.5q-435 0 -435 641zM336 483q0 -348 205 -348q80 0 131 53q72 80 71 299q0 338 -202 338q-205 0 -205 -342z" />
<glyph unicode="&#x432;" horiz-adv-x="1024" d="M158 23v956q0 20 20 20h367q51 0 98 -9t100.5 -33.5t85 -79t31.5 -132.5q0 -70 -38 -129t-107 -88q186 -51 186 -237q0 -70 -20.5 -122t-58.5 -83t-73.5 -49.5t-89 -25.5t-80 -9t-65.5 -2h-336q-20 0 -20 23zM362 160h162q168 0 168 139q0 76 -48 107.5t-103 31.5h-179 v-278zM362 594h148q61 0 105 35t44 100q0 111 -129 111h-168v-246z" />
<glyph unicode="&#x433;" horiz-adv-x="811" d="M158 27v948q0 25 22 24h565q25 0 25 -20v-8l-25 -119q-6 -27 -30 -27h-348v-798q0 -27 -27 -27h-156q-26 0 -26 27z" />
<glyph unicode="&#x434;" horiz-adv-x="1021" d="M10 150q0 18 19 18h77q70 127 95 256q23 113 22 278v279q0 18 17 18h587q18 0 19 -20v-811h106q18 0 19 -18v-398q0 -27 -25 -26h-139q-20 0 -21 20v254h-591v-248q0 -27 -27 -26h-139q-18 0 -19 22v402zM307 168h334v663h-231v-94q-1 -368 -103 -569z" />
<glyph unicode="&#x435;" horiz-adv-x="983" d="M94 496q0 244 117 389t309 145q188 0 288.5 -131t100.5 -377v-14q0 -23 -2 -34t-9 -19.5t-21 -8.5h-570q12 -301 248 -301q43 0 84 9.5t59.5 15.5t60.5 27l46 22q8 4 10 4q10 0 16 -16l48 -103q6 -12 6 -20q0 -41 -129 -78t-221 -37q-209 0 -325 138.5t-116 388.5z M309 604h381q-6 270 -182 270q-179 0 -199 -270z" />
<glyph unicode="&#x436;" horiz-adv-x="1400" d="M39 123q0 12 27 18l24 4q4 0 12 2q23 4 34 9.5t25.5 27t28.5 64.5l43 131q37 123 142 145q-96 18 -131 148l-25 96q-18 74 -80 88l-35 6q-31 6 -30 21q0 2 1 4t1 4l33 121q4 18 43 18q193 0 237 -209l21 -94q6 -29 10 -43t17.5 -37.5t39 -34t62.5 -10.5h65v363 q0 25 19 28l155 37q18 0 19 -20v-408h65q37 0 62.5 10.5t39 34t17.5 37.5t10 43l21 94q45 209 237 209q39 0 43 -18l33 -121q0 -2 1 -4t1 -4q0 -14 -31 -21l-34 -6q-61 -14 -80 -88l-25 -96q-35 -129 -131 -148q104 -23 141 -145l43 -131q6 -18 13 -33l10 -25q4 -10 12 -17 t10 -11t12.5 -7t12.5 -4t15.5 -3.5t15.5 -2.5l24 -4q27 -6 27 -18q0 -8 -2 -12l-33 -117q-8 -25 -39 -25q-96 0 -163.5 42t-98.5 163l-33 125q-18 78 -54 106.5t-99 28.5h-43v-411q0 -23 -23 -23h-147q-23 0 -23 23v411h-43q-63 0 -99 -28.5t-54 -106.5l-33 -125 q-31 -121 -98.5 -163t-163.5 -42q-31 0 -39 25l-33 117q-2 4 -2 12z" />
<glyph unicode="&#x437;" horiz-adv-x="874" d="M68 92q0 8 2 12l41 103q4 10 14 10q12 0 18 -6q4 -2 28 -15l29 -17q5 -3 25.5 -13t27.5 -13t24.5 -9.5t29.5 -8.5t28.5 -4t33.5 -2q76 0 128 42t52 118t-54.5 110.5t-136.5 34.5h-71q-16 0 -22.5 6t-6.5 23v102q0 16 6 22.5t23 6.5h57q186 0 186 141q0 76 -49 105.5 t-108 29.5q-98 0 -183 -65l-16 -12q-10 -8 -20.5 -8.5t-14.5 8.5l-55 88q-4 6 -4 16q0 57 113.5 95t212.5 38q74 0 143 -22.5t127.5 -90t58.5 -172.5q0 -156 -145 -217q84 -20 128 -98t44 -154q0 -129 -74 -206q-96 -100 -293 -101q-129 0 -219 39q-108 49 -108 84z" />
<glyph unicode="&#x438;" horiz-adv-x="1095" d="M158 18v959q0 14 16 16l172 37q16 0 16 -16v-498q0 -113 -8 -211h8q72 147 113 219l258 451q8 14 23 18l149 35q6 2 15 2q18 0 18 -16v-987q0 -27 -20 -27h-158q-27 0 -27 27v454q0 72 8 209l-6 2q-39 -84 -114 -219l-259 -461q-8 -12 -26 -12h-152q-26 0 -26 18z" />
<glyph unicode="&#x439;" horiz-adv-x="1095" d="M158 18v959q0 14 16 16l172 37q16 0 16 -16v-498q0 -113 -8 -211h8q72 147 113 219l258 451q8 14 23 18l149 35q6 2 15 2q18 0 18 -16v-987q0 -27 -20 -27h-158q-27 0 -27 27v454q0 72 8 209l-6 2q-39 -84 -114 -219l-259 -461q-8 -12 -26 -12h-152q-26 0 -26 18z M262 1395q0 23 21 26l123 17q14 0 18 -21l4 -16q31 -111 121 -111q47 0 77.5 30t41.5 75l6 28q4 14 16 15l125 -17q18 -2 19 -24q0 -117 -91.5 -183.5t-193.5 -66.5q-55 0 -105.5 13.5t-104.5 65.5t-73 140z" />
<glyph unicode="&#x43a;" horiz-adv-x="999" d="M158 23v946q0 20 14 22l166 39q2 0 6 2q18 0 18 -24v-406h70q31 0 47.5 3t39 15.5t37.5 44t28 85.5l16 71q18 88 87 148.5t159 60.5q33 0 39 -18l30 -121v-8q0 -16 -16 -19l-47 -10q-59 -12 -80 -92l-18 -72q-10 -41 -19.5 -64.5t-39 -56t-77.5 -43.5q106 -33 142 -155 l43 -135q12 -41 31.5 -61.5t66.5 -29.5l31 -6q18 -2 18 -16q0 -6 -4 -19l-31 -112q-6 -23 -47 -23q-92 0 -156.5 41t-97.5 164l-39 145q-14 55 -43.5 83t-48 30t-59.5 2h-62v-409q0 -25 -24 -25h-158q-22 0 -22 23z" />
<glyph unicode="&#x43b;" horiz-adv-x="1021" d="M0 113q0 18 29 26l20 2q162 12 182 293q12 174 13 428v101q0 37 30 36h564q27 0 26 -28v-944q0 -27 -20 -27h-168q-16 0 -17 20v811h-233v-38q0 -182 -18 -390q-6 -68 -21.5 -130t-50.5 -138t-104.5 -121t-165.5 -45q-29 0 -37 25l-27 102q-2 7 -2 17z" />
<glyph unicode="&#x43c;" horiz-adv-x="1214" d="M133 25l51 950q2 25 29 24h168q12 0 20 -20l158 -442q39 -119 45 -179h6q6 59 45 179l158 442q6 20 23 20h174q20 0 20 -24l51 -952q0 -23 -20 -23h-141q-20 0 -21 25l-18 608q-2 47 -2 110h-7q-10 -57 -43 -153l-141 -402q-8 -23 -22 -22h-117q-14 0 -23 22l-147 416 q-27 78 -37 139h-6q0 -57 -2 -114l-19 -604q0 -25 -18 -25h-143q-21 0 -21 25z" />
<glyph unicode="&#x43d;" horiz-adv-x="1071" d="M158 27v944q0 16 14 20l160 37q6 2 14 2q16 0 16 -16v-408h347v365q0 16 18 22l156 35q6 2 14 2q16 0 16 -18v-985q0 -27 -26 -27h-152q-18 0 -22 5t-4 22v411h-347v-411q0 -18 -5 -22.5t-21 -4.5h-152q-26 0 -26 27z" />
<glyph unicode="&#x43e;" horiz-adv-x="1040" d="M94 498q0 250 115 391t317 141q199 0 310.5 -139t111.5 -389q0 -248 -115.5 -390.5t-316.5 -142.5t-311.5 139.5t-110.5 389.5zM315 506q0 -190 50.5 -279.5t157 -89.5t155.5 89t49 280q0 356 -205 356q-207 0 -207 -356z" />
<glyph unicode="&#x43f;" horiz-adv-x="1058" d="M158 27v952q0 20 18 20h709q16 0 16 -18v-954q0 -27 -20 -27h-158q-27 0 -27 27v804h-334v-804q0 -27 -26 -27h-152q-26 0 -26 27z" />
<glyph unicode="&#x440;" d="M135 940q0 12 12 18l134 68q10 6 16 6q33 0 68 -117q141 115 274 115q338 0 338 -510q0 -266 -92 -408.5t-267 -142.5q-113 0 -225 72v-406q0 -25 -24 -30l-150 -37q-6 -2 -16 -2q-16 0 -17 31v1118q0 111 -34 180q-17 41 -17 45zM393 199q102 -61 185 -62q104 0 145 83 t41 290q0 184 -40 266t-132 82q-84 0 -199 -88v-571z" />
<glyph unicode="&#x441;" horiz-adv-x="849" d="M94 477q0 256 119 404.5t326 148.5q84 0 189.5 -40t105.5 -87q0 -4 -5 -12l-67 -111q-6 -8 -14 -8q-10 0 -19 8q-102 82 -188 82q-225 0 -226 -360q0 -365 217 -365q94 0 201 82q14 10 21 10q8 0 14 -14l41 -100q8 -20 8 -25q0 -43 -116.5 -82t-192.5 -39 q-197 0 -305.5 133t-108.5 375z" />
<glyph unicode="&#x442;" horiz-adv-x="829" d="M41 852v127q0 20 20 20h740q18 0 18 -20q0 -2 -1 -5t-1 -5l-31 -119q-4 -18 -28 -19h-240v-804q0 -27 -22 -27h-160q-23 0 -23 27v804h-252q-20 1 -20 21z" />
<glyph unicode="&#x443;" horiz-adv-x="913" d="M8 -344q0 6 2 10l58 117q6 10 12 10q2 0 18 -8q92 -57 164 -57q59 0 96 38.5t66 127.5l33 106h-82q-27 0 -35 23l-320 915q-6 16 -6 25q0 12 25 18l154 31q4 0 8 1t6 1q20 0 29 -25l198 -639q18 -57 62 -252q4 27 11 69l13 76q6 34 15 62l167 684q6 27 21 27q2 0 5 -1 t5 -1l158 -39q14 -2 14 -17q0 -8 -2 -12l-237 -848l-22 -81l-24 -91q-9 -33 -28 -88t-37 -88t-47 -74t-60.5 -63.5t-76.5 -38.5t-97 -16q-66 0 -166 31.5t-100 66.5z" />
<glyph unicode="&#x444;" horiz-adv-x="1406" d="M94 500q0 88 13.5 170t45 169t97 139t160.5 52q111 0 192 -82v422q0 25 19 29l159 37q2 0 6 2h5q16 0 16 -27v-463q82 82 192 82q94 0 160 -52t97.5 -139t45 -169t13.5 -170q0 -530 -330 -531q-100 0 -178 64v-441q0 -23 -16 -22h-168q-20 0 -21 22v441q-78 -63 -178 -64 q-330 1 -330 531zM307 485q0 -47 1 -75.5t5 -75.5t15.5 -76t29 -59.5t48 -45t69.5 -14.5q70 0 127 58v587q-49 74 -137 74q-55 0 -89 -33.5t-47.5 -98t-17.5 -114t-4 -127.5zM807 197q57 -57 127 -58q39 0 69.5 14.5t48 45t29 59.5t15.5 76t5 75.5t1 75.5q0 78 -4 127.5 t-17.5 114t-47.5 98t-89 33.5q-88 0 -137 -74v-587z" />
<glyph unicode="&#x445;" horiz-adv-x="960" d="M39 49q0 6 10 21l326 438l-283 403q-12 14 -12 26.5t16 18.5l142 56l16 4q10 0 20 -17l148 -233l65 -111q20 33 74 111l158 231q12 18 22 19q4 0 25 -8l129 -52q16 -6 16 -18q0 -10 -14 -29l-289 -393l318 -457q8 -10 8 -20q0 -12 -25 -19l-135 -43q-16 -4 -18 -4 q-14 0 -25 17l-176 270q-49 72 -66 102q-33 -55 -63 -100l-186 -272q-12 -18 -23 -19q-8 0 -20 9l-131 49q-27 12 -27 20z" />
<glyph unicode="&#x446;" horiz-adv-x="1064" d="M158 18v957q0 14 14 16l160 37q6 2 14 2q16 0 16 -16v-846h320v807q0 14 16 18l158 35q4 0 9 1t7 1q14 0 15 -16v-846h108q18 0 19 -18v-398v-10q0 -16 -25 -16h-131q-29 0 -29 26v248h-649q-22 0 -22 18z" />
<glyph unicode="&#x447;" horiz-adv-x="966" d="M102 614v359q0 14 17 18l157 37q2 0 6.5 1t8.5 1q16 0 16 -16v-377q0 -61 42 -93t104 -32q76 0 151 33v430q0 14 19 18l155 35q2 0 7.5 1t7.5 1q16 0 16 -16v-987q0 -27 -23 -27h-163q-18 0 -19 23v360q-94 -39 -196 -39q-160 0 -240 80q-66 65 -66 190z" />
<glyph unicode="&#x448;" horiz-adv-x="1449" d="M158 20v955q0 12 14 16l160 37q6 2 14 2q16 0 16 -16v-846h261v805q0 16 16 20l158 35q2 0 6 1t8 1q16 0 16 -14v-848h260v807q0 14 19 18l156 35q2 0 6 1t8 1q16 0 16 -16v-987q0 -27 -26 -27h-1088q-20 0 -20 20z" />
<glyph unicode="&#x449;" horiz-adv-x="1470" d="M158 20v955q0 12 14 16l160 37q6 2 14 2q16 0 16 -16v-846h261v805q0 16 16 20l158 35q2 0 6 1t8 1q16 0 16 -14v-848h260v807q0 14 19 18l156 35q2 0 6 1t8 1q16 0 16 -16v-846h109q18 0 18 -18v-404q0 -20 -22 -20h-135q-27 0 -27 22v252h-1057q-20 0 -20 20z" />
<glyph unicode="&#x44a;" horiz-adv-x="1091" d="M18 846q0 2 2 6l33 129q4 18 23 18h391q25 0 25 -24v-344h149q190 0 287 -96q82 -82 82 -222q0 -137 -82 -217q-98 -96 -322 -96h-299q-20 0 -20 23v802h-246q-23 1 -23 21zM492 168h124q66 0 125.5 31.5t59.5 113.5q0 49 -19.5 82t-51.5 46.5t-53.5 17.5t-41.5 4h-143 v-295z" />
<glyph unicode="&#x44b;" horiz-adv-x="1353" d="M158 23v948q0 18 14 20l158 37q2 0 7 1t7 1q18 0 18 -22v-377h150q190 0 287 -96q82 -82 82 -222q0 -137 -82 -217q-98 -96 -322 -96h-299q-20 0 -20 23zM362 168h125q66 0 125.5 31.5t59.5 113.5q0 49 -19.5 82t-51.5 46.5t-53.5 17.5t-41.5 4h-144v-295zM991 27v938 q0 20 19 26l153 37q2 0 7.5 1t7.5 1q18 0 18 -22v-981q0 -27 -27 -27h-151q-27 0 -27 27z" />
<glyph unicode="&#x44c;" horiz-adv-x="962" d="M158 23v952q0 12 14 16l160 37q2 0 6 1t8 1q16 0 16 -16v-383h150q190 0 287 -96q82 -82 82 -222q0 -137 -82 -217q-98 -96 -322 -96h-299q-20 0 -20 23zM362 168h125q66 0 125.5 31.5t59.5 113.5q0 49 -19.5 82t-51.5 46.5t-53.5 17.5t-41.5 4h-144v-295z" />
<glyph unicode="&#x44d;" horiz-adv-x="874" d="M68 94q0 6 2 10l41 99q6 16 16 16q8 0 23 -10q100 -72 196 -72q84 0 138.5 54.5t70.5 115t16 123.5h-295q-27 0 -26 27v114q0 27 26 27h293q0 100 -54 182t-159 82q-88 0 -178 -61l-18 -13q-16 -8 -21 -8q-8 0 -14 11l-47 98q-4 8 -4 12q0 12 34.5 42t107.5 58.5 t155 28.5q109 0 188.5 -41t121.5 -98t65.5 -138t29.5 -137.5t6 -119.5q0 -287 -131 -420q-104 -106 -276 -107q-197 0 -293 97q-14 14 -14 28z" />
<glyph unicode="&#x44e;" horiz-adv-x="1427" d="M158 27v938q0 23 14 26l160 37q2 0 6 1t6 1q18 0 18 -22v-400h140q12 174 116.5 298t290.5 124q109 0 190 -44t122 -104.5t66.5 -141.5t31.5 -135t6 -105q0 -57 -9 -119t-38 -138.5t-72 -136t-120.5 -99.5t-178.5 -40q-106 0 -186 40t-121 93.5t-65.5 126t-30.5 119.5 t-6 94h-136v-413q0 -27 -26 -27h-152q-26 0 -26 27zM700 512q0 -262 86 -336q45 -41 117 -41q78 0 124 50.5t61.5 124t15.5 182.5q0 211 -54.5 290.5t-144.5 79.5q-205 0 -205 -350z" />
<glyph unicode="&#x44f;" horiz-adv-x="1011" d="M49 117v4q0 14 29 20l33 6q45 10 59 31q14 20 25 60l22 75l15 45q7 20 13.5 34t15.5 26t14.5 18t15.5 14l13 9q3 2 15.5 7t14.5 7v4q-199 41 -199 238q0 86 39 147.5t100.5 89t112.5 37.5t98 10h353q16 0 16 -20v-959q0 -20 -20 -20h-164q-20 0 -21 27v372h-88 q-55 0 -91 -25.5t-56 -101.5l-27 -96q-35 -123 -100.5 -165t-167.5 -42q-27 0 -31 17l-37 129zM344 705q0 -80 53.5 -113t118.5 -33h133v281h-147q-59 0 -108.5 -32.5t-49.5 -102.5z" />
<glyph unicode="&#x451;" horiz-adv-x="983" d="M94 496q0 244 117 389t309 145q188 0 288.5 -131t100.5 -377v-14q0 -23 -2 -34t-9 -19.5t-21 -8.5h-570q12 -301 248 -301q43 0 84 9.5t59.5 15.5t60.5 27l46 22q8 4 10 4q10 0 16 -16l48 -103q6 -12 6 -20q0 -41 -129 -78t-221 -37q-209 0 -325 138.5t-116 388.5z M217 1327q0 53 36 91t87 38t89 -38t38 -91q0 -51 -38 -88t-89 -37t-87 37t-36 88zM309 604h381q-6 270 -182 270q-179 0 -199 -270zM600 1327q0 53 37 91t88 38t88 -38t37 -91t-36 -89t-89 -36q-51 0 -88 37t-37 88z" />
<glyph unicode="&#x2000;" horiz-adv-x="894" />
<glyph unicode="&#x2001;" horiz-adv-x="1789" />
<glyph unicode="&#x2002;" horiz-adv-x="894" />
<glyph unicode="&#x2003;" horiz-adv-x="1789" />
<glyph unicode="&#x2004;" horiz-adv-x="595" />
<glyph unicode="&#x2005;" horiz-adv-x="446" />
<glyph unicode="&#x2006;" horiz-adv-x="296" />
<glyph unicode="&#x2007;" horiz-adv-x="296" />
<glyph unicode="&#x2008;" horiz-adv-x="223" />
<glyph unicode="&#x2009;" horiz-adv-x="356" />
<glyph unicode="&#x200a;" horiz-adv-x="98" />
<glyph unicode="&#x2010;" horiz-adv-x="755" d="M86 459v131q0 20 7 26.5t30 6.5h514q23 0 28 -5.5t5 -27.5v-131q0 -23 -5.5 -28t-27.5 -5h-514q-25 0 -31 5t-6 28z" />
<glyph unicode="&#x2011;" horiz-adv-x="755" d="M86 459v131q0 20 7 26.5t30 6.5h514q23 0 28 -5.5t5 -27.5v-131q0 -23 -5.5 -28t-27.5 -5h-514q-25 0 -31 5t-6 28z" />
<glyph unicode="&#x2012;" horiz-adv-x="755" d="M86 459v131q0 20 7 26.5t30 6.5h514q23 0 28 -5.5t5 -27.5v-131q0 -23 -5.5 -28t-27.5 -5h-514q-25 0 -31 5t-6 28z" />
<glyph unicode="&#x2013;" horiz-adv-x="1040" d="M84 471v109q0 23 6 28.5t29 5.5h803q23 0 28.5 -6t5.5 -28v-109q0 -23 -6 -29t-28 -6h-803q-23 0 -29 6t-6 29z" />
<glyph unicode="&#x2014;" horiz-adv-x="1662" d="M80 475v100q0 23 6 29t29 6h1433q23 0 29 -6t6 -29v-100q0 -23 -6 -29t-29 -6h-1433q-23 0 -29 6t-6 29z" />
<glyph unicode="&#x2018;" horiz-adv-x="571" d="M80 975q0 10 10 26l240 447q10 23 22 22q8 0 23 -6l65 -22q23 -8 23 -21l-4 -20l-125 -416q-8 -27 -37 -27h-184q-33 1 -33 17z" />
<glyph unicode="&#x2019;" horiz-adv-x="505" d="M100 989q0 4 4 25l123 413q8 29 37 29h185q33 0 32 -18q0 -10 -8 -25l-240 -446q-12 -23 -24 -23q-8 0 -23 6l-65 21q-21 8 -21 18z" />
<glyph unicode="&#x201c;" horiz-adv-x="952" d="M80 975q0 10 10 26l240 447q10 23 22 22q8 0 23 -6l65 -22q23 -8 23 -21l-4 -20l-125 -416q-8 -27 -37 -27h-184q-33 1 -33 17zM459 975q0 10 10 26l240 447q12 23 22 22q6 0 23 -6l65 -22q23 -8 23 -19q0 -2 -4 -22l-125 -416q-8 -27 -37 -27h-184q-33 1 -33 17z" />
<glyph unicode="&#x201d;" horiz-adv-x="954" d="M119 989q0 2 4 23l123 411q8 31 39 31h182q33 0 33 -18q0 -12 -8 -27l-240 -446q-10 -23 -23 -23q-8 0 -22 6l-66 23q-22 8 -22 20zM498 987q0 6 6 25l121 411q10 31 39 31h182q35 0 35 -20q0 -10 -9 -25l-241 -446q-12 -23 -23 -23q-6 0 -22 6l-66 23q-22 8 -22 18z" />
<glyph unicode="&#x201e;" horiz-adv-x="954" d="M119 -221q0 2 4 22l123 416q8 27 39 27h182q33 0 33 -19q0 -8 -8 -22l-240 -447q-14 -23 -25 -22l-20 4l-66 22q-22 9 -22 19zM498 -221q0 8 6 22l121 416q8 27 39 27h182q35 0 35 -17q0 -10 -9 -24l-241 -447q-16 -25 -25 -24q-4 0 -20 6l-66 22q-22 9 -22 19z" />
<glyph unicode="&#x2022;" horiz-adv-x="1421" d="M422 717q0 121 86 208t204.5 87t202.5 -87t84 -208t-84 -208t-202.5 -87t-204.5 87t-86 208z" />
<glyph unicode="&#x2026;" horiz-adv-x="1837" d="M143 139.5q0 69.5 49.5 118.5t119 49t118.5 -49t49 -118.5t-49 -119t-118.5 -49.5t-119 49.5t-49.5 119zM750 139.5q0 69.5 49 118.5t118.5 49t119.5 -49t50 -118.5t-49 -119t-120 -49.5q-70 0 -119 49.5t-49 119zM1356 139.5q0 69.5 50 118.5t119.5 49t120 -49 t50.5 -118.5t-49.5 -119t-121 -49.5t-120.5 49.5t-49 119z" />
<glyph unicode="&#x202f;" horiz-adv-x="356" />
<glyph unicode="&#x2039;" d="M78 641v117q0 20 6 27.5t29 17.5l845 409q20 10 26.5 6t6.5 -24v-137q0 -23 -5 -29t-28 -16l-663 -314l663 -313q23 -10 28 -16.5t5 -28.5v-135q0 -20 -6 -24.5t-27 5.5l-845 410q-31 14 -33 29q-2 6 -2 16z" />
<glyph unicode="&#x203a;" d="M78 205v137q0 23 5 29t28 16l663 311l-663 314q-20 10 -26.5 17t-6.5 30v135q0 20 6 24.5t27 -6.5l845 -409q23 -10 29 -17.5t6 -27.5v-117q0 -14 -4 -22.5t-9 -11.5t-22 -11l-845 -410q-20 -10 -26.5 -5.5t-6.5 24.5z" />
<glyph unicode="&#x205f;" horiz-adv-x="446" />
<glyph unicode="&#x20ac;" horiz-adv-x="993" d="M8 545q0 8 2 12l33 68q2 2 4 8t3 8l3 6q2 4 4 5l6 3q4 2 10 2h11h74v93h-105q-31 0 -30 14q0 8 2 12l34 74l5.5 11l4.5 9t5 6.5t10 5.5t16 1h66q6 68 21.5 135t51 146t86 137.5t132.5 97.5t184 39q176 0 320 -123l14 -12q8 -8 8 -23q0 -8 -2 -10l-74 -119q-6 -10 -18 -10 q-14 0 -25 10l-12 10q-106 88 -203 88q-225 0 -248 -366h363q33 0 33 -21q0 -10 -4 -18l-35 -74q-10 -20 -33 -20h-326v-93h277q29 0 29 -20q0 -6 -5 -14l-32 -70q-12 -29 -39 -29h-221v-8q0 -154 64.5 -257t184.5 -103q94 0 197 84q23 14 31 14q10 0 18 -12l62 -99 q10 -14 10 -26q0 -16 -23 -33q-133 -115 -311 -115q-195 0 -311 117q-72 74 -114 192.5t-46 245.5h-133q-29 1 -29 21z" />
<glyph unicode="&#x2122;" horiz-adv-x="1437" d="M12 1309v69q0 27 29 27h510q33 0 33 -16q0 -6 -2 -11l-25 -75q-6 -23 -33 -23h-159v-647q0 -29 -31 -29h-94q-20 0 -26.5 6t-6.5 23v647h-166q-18 0 -23.5 6.5t-5.5 22.5zM618 627l44 753q2 16 7 20.5t21 4.5h103q25 0 30 -19l123 -339q4 -10 12.5 -40t8.5 -32 q10 43 20 67l131 344q6 18 33 19h98q29 0 31 -25l43 -747v-6q0 -23 -31 -23h-92q-31 0 -31 27l-10 416v143q-14 -55 -47 -143l-88 -244q-6 -18 -33 -19h-55q-27 0 -33 19l-82 233q-37 111 -47 152v-45l-10 -512q0 -27 -31 -27h-84q-31 0 -31 23z" />
<glyph unicode="&#xe000;" horiz-adv-x="1014" d="M0 1015h1015v-1015h-1015v1015z" />
</font>
</defs>
</svg>
